<svg width="712" height="268" viewBox="0 0 712 268" fill="none" xmlns="http://www.w3.org/2000/svg">
<path d="M19.125 59.8125H42.3125V55.8125H19.125V59.8125ZM50.375 9.875V42.625H42.1875V9.875H50.375ZM2.6875 33.8125C13.4375 33.8125 27.0938 33.7812 39.125 32.1875L39.625 38C35.2812 38.75 30.8125 39.25 26.375 39.5625V46.1875H19.125V49.8125H42.3125V45.0625H50.375V66.125H11.0625V45.0625H18.375V40C13.0625 40.2188 8 40.25 3.5625 40.25L2.6875 33.8125ZM26.0625 13.5625C26.0625 18.3438 30.0938 22.875 38.875 24.5625L35.5625 30.6875C29 29.3125 24.4688 26.2812 22 22.25C19.5 26.6875 14.9062 30.0312 8.0625 31.5L4.625 25.4375C13.625 23.5625 17.6562 18.6875 17.625 13.5625V11.3125H26.0625V13.5625ZM104.75 14.75V20.125C104.75 27.25 104.75 35.25 102.5 47.375L94.4375 46.5C96.5312 35.75 96.6562 27.8125 96.625 21.1875H63.1875V14.75H104.75ZM109.812 53.3125V59.875H57.875V53.3125H76.3125V33.75H84.4375V53.3125H109.812ZM173.75 9.875V25.8125H181.438V32.4375H173.75V50.5625H165.625V9.875H173.75ZM158.312 14.125C158.312 29.5312 148.688 40.2188 131.625 45.0625L128.25 38.6875C141 35.1562 148.25 28.5625 149.5 20.5625H130.75V14.125H158.312ZM175.75 59.25V65.75H136.75V46.4375H144.875V59.25H175.75ZM232 9.875V51.8125H223.812V37.75H216.75V31.25H223.812V26.3125H216.75V19.8125H223.812V9.875H232ZM215.688 13.875V20.375H211.125V37.5C212.969 37.375 214.781 37.1875 216.5 37L216.938 42.9375C206.281 44.7188 193.781 44.9375 184.75 44.9375L184 38.3125H190V20.375H185.375V13.875H215.688ZM233.25 59.25V65.75H194.062V48.625H202.188V59.25H233.25ZM197.812 38.1875L203.312 38V20.375H197.812V38.1875ZM284.25 9.875V32.0625H292.562V38.8125H284.25V66.75H276.188V9.875H284.25ZM272.438 18.25V24.75H239V18.25H251.75V10.8125H259.875V18.25H272.438ZM255.812 28C264.188 27.9688 270.344 33.5938 270.375 41.5C270.344 49.4375 264.188 55.0625 255.812 55.0625C247.5 55.0625 241.312 49.4375 241.312 41.5C241.312 33.5938 247.5 27.9688 255.812 28ZM255.812 34.5625C251.875 34.5625 249.031 37.1562 249.062 41.5C249.031 45.9062 251.875 48.5 255.812 48.5C259.781 48.5 262.625 45.9062 262.625 41.5C262.625 37.1562 259.781 34.5625 255.812 34.5625ZM344 9.875V66.6875H336.25V9.875H344ZM331.75 11.0625V64.1875H324.188V38.125H315.125C311.844 44.625 306.562 50.2188 298.438 54.875L293.875 49.25C305.375 42.4375 310.438 34.25 311.562 23.0625H297.062V16.5625H319.5C319.5 21.9688 318.938 27.0312 317.625 31.6875H324.188V11.0625H331.75ZM382.5 12.1875C390.844 12.1562 396.844 16.8438 396.875 23.6875C396.844 29.3125 392.75 33.5312 386.625 34.8125V39C391.094 38.75 395.594 38.3438 399.75 37.75L400.312 43.5625C388.688 45.6875 375.594 45.8438 366.125 45.875L365.188 39.5C369.125 39.5 373.719 39.4688 378.562 39.3125V34.875C372.375 33.5938 368.188 29.375 368.188 23.6875C368.188 16.8438 374.219 12.1562 382.5 12.1875ZM382.5 18.1875C378.531 18.2188 375.75 20.2188 375.75 23.6875C375.75 27.1562 378.531 29.1562 382.5 29.1875C386.562 29.1562 389.281 27.1562 389.312 23.6875C389.281 20.2188 386.562 18.2188 382.5 18.1875ZM410.875 9.9375V27.75H418.188V34.375H410.875V53.25H402.812V9.9375H410.875ZM412.812 59.25V65.75H372.688V49.5625H380.812V59.25H412.812ZM442.312 17.5625C442.312 25.1562 446.156 32.125 455.188 35.0625L451 41.375C445.094 39.3438 440.875 35.5 438.438 30.3125C435.875 36.1562 431.281 40.8125 424.438 43.125L420.188 36.5625C429.781 33.5 434.094 26 434.125 17.9375V12.8125H442.312V17.5625ZM468.75 9.875V43.1875H460.562V26.8125H450.062V20.25H460.562V9.875H468.75ZM449.312 44.625C461.375 44.625 468.906 48.7188 468.938 55.6875C468.906 62.6875 461.375 66.75 449.312 66.75C437.156 66.75 429.656 62.6875 429.625 55.6875C429.656 48.7188 437.156 44.625 449.312 44.625ZM449.312 50.9375C441.75 50.9062 437.719 52.4688 437.688 55.6875C437.719 58.9375 441.781 60.5312 449.312 60.5C456.812 60.5312 460.875 58.9375 460.875 55.6875C460.875 52.4688 456.844 50.9062 449.312 50.9375ZM521 9.875V32.0625H529.312V38.8125H521V66.75H512.938V9.875H521ZM509.188 18.25V24.75H475.75V18.25H488.5V10.8125H496.625V18.25H509.188ZM492.562 28C500.938 27.9688 507.094 33.5938 507.125 41.5C507.094 49.4375 500.938 55.0625 492.562 55.0625C484.25 55.0625 478.062 49.4375 478.062 41.5C478.062 33.5938 484.25 27.9688 492.562 28ZM492.562 34.5625C488.625 34.5625 485.781 37.1562 485.812 41.5C485.781 45.9062 488.625 48.5 492.562 48.5C496.531 48.5 499.375 45.9062 499.375 41.5C499.375 37.1562 496.531 34.5625 492.562 34.5625ZM577.562 25.25V31.6875H537.75V11.875H545.812V25.25H577.562ZM583.312 37.625V44.0625H531.375V37.625H583.312ZM577.875 59.0625V65.5H537.25V48.5625H545.375V59.0625H577.875ZM647.688 15.0625V21.8125C647.688 29.7812 647.688 37.5625 645.625 49.25L637.5 48.5625C639.656 37.625 639.656 29.5 639.625 21.8125V21.5625H607.5V15.0625H647.688ZM654.125 52.75V59.3125H602.188V52.75H654.125ZM705.125 9.875V43.5625H697V9.875H705.125ZM686.75 13.0625V30.1875H668.375V35.125C678.062 35.0938 684.594 34.8125 692.125 33.5625L693.062 40C684.5 41.4688 676.656 41.6875 665.438 41.6875H660.438V24.1875H678.75V19.5H660.312V13.0625H686.75ZM705.125 46.1875V66.125H667V46.1875H705.125ZM674.938 52.4375V59.75H697.188V52.4375H674.938ZM188.031 90.75V97.125H156.469V90.75H168.594V85.375H176.719V90.75H188.031ZM172.594 99C180.281 99.0312 186.062 103.625 186.031 109.938C186.062 116.219 180.281 120.812 172.594 120.812C164.938 120.812 159.156 116.219 159.156 109.938C159.156 103.625 164.938 99.0312 172.594 99ZM172.594 105.188C169.188 105.188 166.719 106.906 166.719 109.938C166.719 112.938 169.188 114.688 172.594 114.688C176.031 114.688 178.531 112.938 178.531 109.938C178.531 106.906 176.031 105.188 172.594 105.188ZM204.344 85.875V122.062H196.156V115.938H188.531V109.562H196.156V105H188.656V98.625H196.156V85.875H204.344ZM204.344 124.625V142.75H196.156V131H165.219V124.625H204.344ZM259.656 85.875V119.188H251.469V111.938H241.031V116.062H213.969V89.9375H241.031V94.125H251.469V85.875H259.656ZM221.906 96.375V109.812H233.156V96.375H221.906ZM240.219 120.625C252.281 120.625 259.812 124.719 259.844 131.688C259.812 138.688 252.281 142.75 240.219 142.75C228.062 142.75 220.562 138.688 220.531 131.688C220.562 124.719 228.062 120.625 240.219 120.625ZM240.219 126.875C232.656 126.875 228.625 128.438 228.594 131.688C228.625 134.969 232.688 136.562 240.219 136.562C247.719 136.562 251.781 134.969 251.781 131.688C251.781 128.438 247.75 126.875 240.219 126.875ZM241.031 105.438H251.469V100.5H241.031V105.438ZM299.719 89V95.4375H288.469C288.594 102.031 292.625 108.875 301.531 111.875L297.531 118.188C291.25 116.094 286.969 111.938 284.531 106.812C282 112.438 277.5 117.031 270.719 119.25L266.656 112.875C275.938 109.812 280.156 102.531 280.281 95.4375H268.844V89H299.719ZM314.969 122.312V142.75H306.781V128.75H275.844V122.312H314.969ZM314.969 85.875V119.688H306.781V106.062H298.156V99.4375H306.781V85.875H314.969ZM369.906 85.9375V126.812H361.781V85.9375H369.906ZM371.406 135.25V141.75H331.781V122.688H339.844V135.25H371.406ZM338.719 89.5C347.469 89.5 354.281 95.5312 354.281 103.938C354.281 112.25 347.469 118.344 338.719 118.375C329.875 118.344 323.094 112.25 323.094 103.938C323.094 95.5312 329.875 89.5 338.719 89.5ZM338.719 96.5C334.344 96.4688 331 99.2188 331.031 103.938C331 108.531 334.344 111.281 338.719 111.312C343.062 111.281 346.375 108.531 346.344 103.938C346.375 99.2188 343.062 96.4688 338.719 96.5ZM438.594 91.0625V97.8125C438.594 105.781 438.594 113.562 436.531 125.25L428.406 124.562C430.562 113.625 430.562 105.5 430.531 97.8125V97.5625H398.406V91.0625H438.594ZM445.031 128.75V135.312H393.094V128.75H445.031ZM496.031 85.875V119.562H487.906V85.875H496.031ZM477.656 89.0625V106.188H459.281V111.125C468.969 111.094 475.5 110.812 483.031 109.562L483.969 116C475.406 117.469 467.562 117.688 456.344 117.688H451.344V100.188H469.656V95.5H451.219V89.0625H477.656ZM496.031 122.188V142.125H457.906V122.188H496.031ZM465.844 128.438V135.75H488.094V128.438H465.844ZM535.531 90.5V97H530.906V112.75C533.156 112.562 535.375 112.344 537.531 112.062L538.031 118C526.812 119.906 513.594 120.219 504.219 120.188L503.406 113.625L509.469 113.562V97H504.844V90.5H535.531ZM548.781 85.9375V101.938H556.469V108.625H548.781V127.812H540.719V85.9375H548.781ZM550.906 135.25V141.75H511.906V123.875H519.969V135.25H550.906ZM517.219 113.438L523.219 113.188V97H517.219V113.438Z" fill="black"/>
<path d="M231.141 196.531V224.75H227.797V210.5H224.672V223.375H221.391V197.094H224.672V207.625H227.797V196.531H231.141ZM211.609 199.75V214.688C214 214.625 216.719 214.438 219.641 213.875L219.984 216.906C216.203 217.578 212.938 217.719 209.984 217.719H208.078V199.75H211.609ZM256.672 196.531V207.562H260.859V210.469H256.672V224.719H253.141V196.531H256.672ZM249.172 199.469C249.188 207.781 245.766 215.031 236.391 219.688L234.422 217.031C241.172 213.609 244.922 208.859 245.609 202.344H235.891V199.469H249.172ZM292.516 199.281V202.438C292.5 206.266 292.5 210.188 291.484 216.094L287.953 215.75C289.031 210.234 289.031 206.141 289.016 202.438V202.094H272.734V199.281H292.516ZM295.797 218.031V220.938H270.047V218.031H295.797ZM321.203 196.562V217.344H317.703V196.562H321.203ZM321.953 221.375V224.219H302.359V215.656H305.859V221.375H321.953ZM312.141 198.438V207.156H302.609V210.75C307.797 210.75 311.125 210.594 314.984 209.875L315.328 212.688C311.172 213.453 307.562 213.609 301.578 213.594H299.172V204.531H308.672V201.281H299.109V198.438H312.141ZM356.766 196.531V224.75H353.266V196.531H356.766ZM348.328 199.5C348.344 207.953 345.109 215.062 335.234 219.812L333.359 217C340.75 213.5 344.156 208.75 344.766 202.312H334.797V199.5H348.328ZM384.359 196.562V217.344H380.859V196.562H384.359ZM385.109 221.375V224.219H365.516V215.656H369.016V221.375H385.109ZM375.297 198.438V207.156H365.766V210.75C370.953 210.75 374.281 210.594 378.141 209.875L378.484 212.688C374.328 213.453 370.719 213.609 364.734 213.594H362.328V204.531H371.828V201.281H362.266V198.438H375.297ZM418.828 199.281V202.438C418.812 206.266 418.812 210.188 417.797 216.094L414.266 215.75C415.344 210.234 415.344 206.141 415.328 202.438V202.094H399.047V199.281H418.828ZM422.109 218.031V220.938H396.359V218.031H422.109ZM447.547 196.562V213.281H444.016V196.562H447.547ZM438.453 198.188V206.406H428.922V209.344C433.844 209.328 437.234 209.172 441.234 208.531L441.641 211.344C437.234 212.078 433.328 212.203 427.891 212.188H425.484V203.75H434.984V201H425.422V198.188H438.453ZM447.547 214.656V224.438H428.797V214.656H447.547ZM432.266 217.406V221.625H444.078V217.406H432.266ZM464.516 198.094C470.469 198.094 475.047 201.297 475.047 206.125C475.047 210.953 470.484 214.141 464.516 214.125C458.562 214.141 453.984 210.953 453.984 206.125C453.984 201.297 458.578 198.094 464.516 198.094ZM464.516 200.969C460.422 200.953 457.422 202.953 457.422 206.125C457.422 209.266 460.406 211.25 464.516 211.25C468.641 211.25 471.625 209.266 471.641 206.125C471.625 202.953 468.641 200.953 464.516 200.969ZM477.453 218.344V221.25H451.672V218.344H477.453ZM505.109 218.625V221.5H479.328V218.625H490.422V214.031H482.391V204.781H498.609V201.281H482.328V198.469H502.109V207.562H485.859V211.219H502.766V214.031H493.922V218.625H505.109ZM168.766 234.531V241.438H172.641V244.344H168.766V251H165.203V234.531H168.766ZM159.484 251.531C165.312 251.531 169 253.672 168.984 257.125C169 260.672 165.312 262.766 159.484 262.75C153.656 262.766 149.938 260.672 149.953 257.125C149.938 253.672 153.656 251.531 159.484 251.531ZM159.484 254.344C155.656 254.359 153.422 255.281 153.422 257.125C153.422 258.953 155.641 259.938 159.484 259.938C163.328 259.938 165.547 258.953 165.547 257.125C165.547 255.281 163.297 254.359 159.484 254.344ZM160.172 236.531V239.344H150.984V246.438C156.344 246.406 159.344 246.219 162.703 245.5L163.047 248.344C159.391 249.109 156.109 249.25 149.828 249.25H147.484V236.531H160.172ZM197.609 234.562V255.156H194.078V234.562H197.609ZM198.391 259.375V262.219H178.891V253.219H182.391V259.375H198.391ZM184.578 238.875C184.578 242.906 187.016 246.531 191.391 248L189.578 250.781C186.359 249.656 184.094 247.406 182.859 244.531C181.578 247.609 179.25 250.078 175.922 251.281L174.109 248.5C178.688 246.859 181.016 242.875 181.016 238.875V236.094H184.578V238.875ZM210.891 236.469C215.359 236.484 218.656 239.312 218.672 243.312C218.656 247.328 215.359 250.172 210.891 250.156C206.453 250.172 203.125 247.328 203.141 243.312C203.125 239.312 206.453 236.484 210.891 236.469ZM210.891 239.5C208.406 239.516 206.562 240.953 206.547 243.312C206.562 245.672 208.406 247.156 210.891 247.156C213.375 247.156 215.219 245.672 215.203 243.312C215.219 240.953 213.375 239.516 210.891 239.5ZM225.234 234.531V262.812H221.734V234.531H225.234ZM201.859 254.031C206.859 254.047 213.984 254 220.078 253.094L220.328 255.656C214.078 256.859 207.25 256.922 202.297 256.938L201.859 254.031ZM260.922 234.562V253.562H257.391V244.25H251.703V249.375H238.453V236.594H251.703V241.375H257.391V234.562H260.922ZM241.891 239.406V246.625H248.297V239.406H241.891ZM253.297 252.656C253.297 255.938 256.781 259.062 262.516 259.906L261.172 262.656C256.641 261.938 253.188 259.828 251.484 256.938C249.75 259.797 246.312 261.953 241.797 262.656L240.484 259.906C246.109 259.047 249.703 255.812 249.703 252.656V251.781H253.297V252.656ZM275.641 240.25C275.625 243.75 278.031 247.188 282.516 248.656L280.703 251.344C277.5 250.328 275.172 248.188 273.922 245.469C272.641 248.406 270.25 250.75 266.891 251.875L265.078 249.125C269.656 247.609 272.047 243.953 272.047 240.25V239.5H266.016V236.656H281.547V239.5H275.641V240.25ZM288.422 234.562V255.031H284.891V234.562H288.422ZM289.203 259.375V262.219H269.703V253.156H273.203V259.375H289.203ZM322.859 237.281V240.438C322.844 244.266 322.844 248.188 321.828 254.094L318.297 253.75C319.375 248.234 319.375 244.141 319.359 240.438V240.094H303.078V237.281H322.859ZM326.141 256.031V258.938H300.391V256.031H326.141ZM351.578 234.562V251.281H348.047V234.562H351.578ZM342.484 236.188V244.406H332.953V247.344C337.875 247.328 341.266 247.172 345.266 246.531L345.672 249.344C341.266 250.078 337.359 250.203 331.922 250.188H329.516V241.75H339.016V239H329.453V236.188H342.484ZM351.578 252.656V262.438H332.828V252.656H351.578ZM336.297 255.406V259.625H348.109V255.406H336.297ZM368.547 234.969C374.969 234.969 378.75 236.688 378.734 239.812C378.75 242.938 374.969 244.672 368.547 244.656C362.141 244.672 358.344 242.938 358.359 239.812C358.344 236.688 362.141 234.969 368.547 234.969ZM368.547 237.562C364.219 237.578 362 238.344 361.984 239.812C362 241.328 364.219 242.062 368.547 242.062C372.875 242.062 375.109 241.328 375.109 239.812C375.109 238.344 372.875 237.578 368.547 237.562ZM381.422 246.188V248.969H355.672V246.188H381.422ZM378.234 250.875V257.781H362.203V259.844H379.016V262.531H358.734V255.312H374.766V253.5H358.672V250.875H378.234ZM399.703 235.75C403.844 235.75 406.797 238.031 406.797 241.406C406.797 244.266 404.672 246.344 401.516 246.938V249.219C403.875 249.094 406.25 248.875 408.453 248.562L408.703 251.094C402.859 252.172 396.281 252.25 391.547 252.25L391.109 249.438C393.125 249.438 395.516 249.438 398.016 249.344V246.938C394.812 246.406 392.641 244.297 392.641 241.406C392.641 238.031 395.594 235.75 399.703 235.75ZM399.703 238.375C397.484 238.391 395.922 239.547 395.922 241.406C395.922 243.281 397.484 244.422 399.703 244.406C401.969 244.422 403.5 243.281 403.484 241.406C403.5 239.547 401.969 238.391 399.703 238.375ZM413.578 234.562V243.656H417.391V246.562H413.578V256.094H410.047V234.562H413.578ZM414.547 259.375V262.219H394.953V254.25H398.484V259.375H414.547ZM429.234 238.562C429.219 242.406 431.438 245.906 435.797 247.344L433.984 250.094C430.984 249.031 428.781 247.016 427.547 244.281C426.281 247.344 423.938 249.734 420.516 250.938L418.672 248.094C423.266 246.578 425.672 242.844 425.672 238.719V236.062H429.234V238.562ZM442.516 234.562V251.125H438.984V242.844H433.422V239.969H438.984V234.562H442.516ZM432.984 251.875C438.922 251.891 442.625 253.891 442.609 257.312C442.625 260.75 438.922 262.75 432.984 262.75C427 262.75 423.312 260.75 423.328 257.312C423.312 253.891 427 251.891 432.984 251.875ZM432.984 254.625C429.031 254.641 426.812 255.562 426.828 257.312C426.812 259.078 429.062 260.016 432.984 260C436.891 260.016 439.125 259.078 439.141 257.312C439.125 255.562 436.906 254.641 432.984 254.625ZM460.266 239V241.812H446.453V239H451.672V235.312H455.172V239H460.266ZM453.391 243.312C457 243.297 459.594 246.031 459.609 249.906C459.594 253.797 457 256.516 453.391 256.5C449.828 256.516 447.219 253.797 447.234 249.906C447.219 246.031 449.828 243.297 453.391 243.312ZM453.391 246.219C451.609 246.234 450.344 247.656 450.328 249.906C450.344 252.188 451.609 253.594 453.391 253.594C455.188 253.594 456.484 252.188 456.484 249.906C456.484 247.656 455.188 246.234 453.391 246.219ZM470.828 234.531V262.75H467.484V249H464.734V261.5H461.453V235.094H464.734V246.156H467.484V234.531H470.828ZM499.953 256.5V259.375H474.172V256.5H485.266V251H477.016V236.406H480.484V241H493.547V236.406H497.047V251H488.766V256.5H499.953ZM480.484 248.188H493.547V243.781H480.484V248.188ZM510.641 241.875C510.641 246.453 512.203 251.203 516.047 253.594L514.109 256.344C511.594 254.812 509.938 252.188 509.016 249.094C507.953 252.641 506.078 255.406 503.484 256.969L501.359 254.312C505.438 251.891 507.25 246.859 507.266 242.062V237.062H510.641V241.875ZM526.172 234.531V262.75H522.828V234.531H526.172ZM520.328 235.031V261.438H517.016V247.125H513.047V244.25H517.016V235.031H520.328ZM555.266 256.469V259.375H529.484V256.469H535.391V249.312C533.156 248.031 531.797 246.016 531.797 243.531C531.797 239 536.25 236.078 542.328 236.062C548.438 236.078 552.859 239 552.859 243.531C552.859 246.016 551.516 248.016 549.297 249.312V256.469H555.266ZM542.328 238.812C538.141 238.828 535.25 240.594 535.234 243.531C535.25 246.453 538.141 248.234 542.328 248.25C546.531 248.234 549.422 246.453 549.422 243.531C549.422 240.594 546.531 238.828 542.328 238.812ZM538.891 256.469H545.797V250.625C544.719 250.859 543.562 250.969 542.328 250.969C541.109 250.969 539.953 250.859 538.891 250.625V256.469ZM563.391 252.531H559.328V237.375H563.391V252.531ZM561.359 260.312C559.891 260.312 558.828 259.281 558.828 257.875C558.828 256.469 559.891 255.438 561.359 255.438C562.812 255.438 563.891 256.469 563.891 257.875C563.891 259.281 562.812 260.312 561.359 260.312Z" fill="#757676"/>
</svg>
