<svg width="300" height="300" viewBox="0 0 300 300" fill="none" xmlns="http://www.w3.org/2000/svg">
<g clip-path="url(#clip0_6_76)">
<g clip-path="url(#clip1_6_76)">
<path d="M82.5 116.159C94.0689 201.471 82.834 246.767 53 326.159C113.374 358.836 148.603 362.586 215 331.659C181.569 273.505 166.067 237.867 153 160.659C190.45 144.166 210.147 133.731 241.5 111.659C249.843 97.5024 247.164 88.5082 241.5 72.159C233.896 49.6942 225.728 46.243 207.5 48.659C171.029 62.6379 148.873 68.4826 107 76.159C100.026 58.3695 95.2259 52.218 82.5 59.159C72.3805 69.685 73.2795 76.5759 87 90.6591C72.2416 87.2106 64.3368 85.7805 59 95.1591C55.7365 105.399 59.0123 110.304 82.5 116.159Z" fill="#00B7A4" stroke="#00B7A4"/>
<path d="M127.235 292.869C131.684 280.958 134.999 274.036 145.607 262.927C146.147 262.362 146.976 262.167 147.71 262.437C157.504 266.046 163.038 269.817 171.669 279.623C171.885 279.868 172.041 280.17 172.114 280.488C174.405 290.424 173.989 295.791 172.249 304.299C172.099 305.035 171.544 305.624 170.819 305.82L143.382 313.261C142.822 313.413 142.221 313.314 141.743 312.985C133.168 307.098 129.859 302.763 127.195 294.142C127.067 293.728 127.083 293.276 127.235 292.869Z" fill="#00645A" stroke="#00B7A4"/>
<path d="M67.3219 302.023C73.3474 297.94 77.1612 295.838 83.4868 293.426C84.1821 293.161 84.9697 293.312 85.5183 293.815C95.0357 302.538 98.5721 308.119 100.03 318.33C100.092 318.762 100.005 319.207 99.7849 319.585C95.8815 326.294 92.6596 329.516 85.4227 333.109C84.915 333.361 84.3223 333.377 83.7979 333.162L66.3141 325.989C65.588 325.691 65.1023 324.994 65.078 324.209C64.8288 316.169 65.1459 311.256 66.4795 303.334C66.5693 302.801 66.8743 302.327 67.3219 302.023Z" fill="#00645A" stroke="#00B7A4"/>
<path d="M83.2111 246.806L89.7446 225.339C89.9074 224.804 90.2866 224.362 90.7903 224.119L102.764 218.354C103.236 218.127 103.78 218.094 104.275 218.264C114.147 221.649 119.036 224.297 119.494 234.853C119.498 234.949 119.495 235.05 119.485 235.145C118.288 246.443 116.713 252.467 110.495 260.841C110.181 261.264 109.707 261.542 109.185 261.612C101.756 262.604 97.1447 262.368 89.5073 260.721C88.876 260.585 88.3507 260.147 88.099 259.552L83.2826 248.168C83.1 247.736 83.0747 247.254 83.2111 246.806Z" fill="#00645A" stroke="#00B7A4"/>
<path d="M127.594 193.794L134.219 185.927C134.699 185.357 135.457 185.1 136.183 185.267C141.179 186.414 144.365 187.461 149.184 190.906C149.7 191.274 150 191.873 150 192.506V209.759C150 210.519 149.57 211.217 148.882 211.54C143.475 214.079 139.78 214.689 133.795 214.542C133.007 214.522 132.309 214.027 132.021 213.293C129.293 206.322 128.288 202.106 127.153 195.412C127.055 194.835 127.217 194.242 127.594 193.794Z" fill="#00645A" stroke="#00B7A4"/>
<path d="M138 129C149.046 129 158 120.046 158 109C158 97.9543 149.046 89 138 89C126.954 89 118 97.9543 118 109C118 120.046 126.954 129 138 129Z" fill="white"/>
<path fill-rule="evenodd" clip-rule="evenodd" d="M119.567 40.7452C121.068 39.2911 122 37.2544 122 35C122 30.5817 118.418 27 114 27C109.582 27 106 30.5817 106 35C106 39.4183 109.582 43 114 43C114.435 43 114.862 42.9653 115.278 42.8985C115.279 43.053 115.298 43.209 115.336 43.3636L123.19 75.2424C123.379 76.0076 123.999 76.5907 124.774 76.7317L125.96 76.9473C127.387 77.2068 128.607 75.9086 128.26 74.5005L120.182 41.7643C120.079 41.3475 119.858 41.0015 119.567 40.7452Z" fill="#034C45"/>
<path fill-rule="evenodd" clip-rule="evenodd" d="M138.567 33.7452C140.068 32.2911 141 30.2544 141 28C141 23.5817 137.418 20 133 20C128.582 20 125 23.5817 125 28C125 32.4183 128.582 36 133 36C133.435 36 133.862 35.9653 134.278 35.8985C134.279 36.053 134.298 36.209 134.336 36.3636L142.19 68.2424C142.379 69.0076 142.999 69.5907 143.774 69.7317L144.96 69.9473C146.387 70.2068 147.607 68.9086 147.26 67.5005L139.182 34.7643C139.079 34.3475 138.858 34.0015 138.567 33.7452Z" fill="#034C45"/>
<path d="M149.406 107.326C150.772 106.766 151.445 105.187 150.652 103.942C150.076 103.038 149.405 102.197 148.647 101.434C147.259 100.035 145.61 98.9243 143.793 98.1636C141.976 97.4029 140.026 97.0076 138.057 97.0001C136.087 96.9927 134.135 97.3733 132.312 98.1203C130.489 98.8672 128.832 99.9658 127.434 101.354C126.035 102.741 124.924 104.391 124.164 106.208C123.403 108.025 123.008 109.974 123 111.943C122.996 113.019 123.108 114.09 123.332 115.137C123.641 116.581 125.228 117.234 126.594 116.674C127.96 116.114 128.572 114.546 128.407 113.079C128.365 112.709 128.345 112.337 128.347 111.964C128.351 110.696 128.606 109.442 129.095 108.272C129.585 107.103 130.3 106.041 131.2 105.148C132.1 104.255 133.166 103.548 134.339 103.068C135.513 102.587 136.769 102.342 138.036 102.347C139.304 102.351 140.559 102.606 141.728 103.095C142.897 103.585 143.959 104.3 144.852 105.2C145.115 105.465 145.362 105.744 145.591 106.037C146.503 107.198 148.04 107.886 149.406 107.326Z" fill="black"/>
<path d="M211.697 104.594C210.737 105.097 210.359 106.29 210.952 107.197C211.664 108.287 212.475 109.297 213.365 110.201C214.699 111.556 216.185 112.645 217.737 113.405C219.289 114.164 220.877 114.58 222.41 114.628C223.943 114.676 225.391 114.355 226.672 113.684C227.953 113.014 229.042 112.006 229.875 110.718C230.709 109.43 231.272 107.889 231.531 106.18C231.791 104.472 231.742 102.631 231.388 100.762C231.152 99.5161 230.783 98.2741 230.293 97.0675C229.885 96.0635 228.689 95.6956 227.729 96.1984C226.769 96.7012 226.415 97.8842 226.768 98.9088C226.963 99.4767 227.117 100.054 227.227 100.632C227.455 101.834 227.486 103.019 227.319 104.119C227.152 105.218 226.79 106.21 226.253 107.039C225.717 107.868 225.016 108.516 224.192 108.948C223.368 109.38 222.435 109.586 221.449 109.555C220.462 109.524 219.44 109.257 218.441 108.768C217.442 108.279 216.486 107.579 215.628 106.706C215.215 106.287 214.828 105.832 214.473 105.348C213.832 104.474 212.657 104.092 211.697 104.594Z" fill="black"/>
</g>
</g>
<defs>
<clipPath id="clip0_6_76">
<rect width="300" height="300" fill="white"/>
</clipPath>
<clipPath id="clip1_6_76">
<rect width="196" height="334" fill="white" transform="translate(52 20)"/>
</clipPath>
</defs>
</svg>
