<svg width="410" height="105" viewBox="0 0 410 105" fill="none" xmlns="http://www.w3.org/2000/svg">
<path d="M80.6406 0.03125V28.25H77.2969V14H74.1719V26.875H70.8906V0.59375H74.1719V11.125H77.2969V0.03125H80.6406ZM61.1094 3.25V18.1875C63.5 18.125 66.2188 17.9375 69.1406 17.375L69.4844 20.4062C65.7031 21.0781 62.4375 21.2188 59.4844 21.2188H57.5781V3.25H61.1094ZM106.172 0.03125V11.0625H110.359V13.9688H106.172V28.2188H102.641V0.03125H106.172ZM98.6719 2.96875C98.6875 11.2812 95.2656 18.5312 85.8906 23.1875L83.9219 20.5312C90.6719 17.1094 94.4219 12.3594 95.1094 5.84375H85.3906V2.96875H98.6719ZM142.016 2.78125V5.9375C142 9.76562 142 13.6875 140.984 19.5938L137.453 19.25C138.531 13.7344 138.531 9.64062 138.516 5.9375V5.59375H122.234V2.78125H142.016ZM145.297 21.5312V24.4375H119.547V21.5312H145.297ZM170.703 0.0625V20.8438H167.203V0.0625H170.703ZM171.453 24.875V27.7188H151.859V19.1562H155.359V24.875H171.453ZM161.641 1.9375V10.6562H152.109V14.25C157.297 14.25 160.625 14.0938 164.484 13.375L164.828 16.1875C160.672 16.9531 157.062 17.1094 151.078 17.0938H148.672V8.03125H158.172V4.78125H148.609V1.9375H161.641ZM206.266 0.03125V28.25H202.766V0.03125H206.266ZM197.828 3C197.844 11.4531 194.609 18.5625 184.734 23.3125L182.859 20.5C190.25 17 193.656 12.25 194.266 5.8125H184.297V3H197.828ZM233.859 0.0625V20.8438H230.359V0.0625H233.859ZM234.609 24.875V27.7188H215.016V19.1562H218.516V24.875H234.609ZM224.797 1.9375V10.6562H215.266V14.25C220.453 14.25 223.781 14.0938 227.641 13.375L227.984 16.1875C223.828 16.9531 220.219 17.1094 214.234 17.0938H211.828V8.03125H221.328V4.78125H211.766V1.9375H224.797ZM268.328 2.78125V5.9375C268.312 9.76562 268.312 13.6875 267.297 19.5938L263.766 19.25C264.844 13.7344 264.844 9.64062 264.828 5.9375V5.59375H248.547V2.78125H268.328ZM271.609 21.5312V24.4375H245.859V21.5312H271.609ZM297.047 0.0625V16.7812H293.516V0.0625H297.047ZM287.953 1.6875V9.90625H278.422V12.8438C283.344 12.8281 286.734 12.6719 290.734 12.0312L291.141 14.8438C286.734 15.5781 282.828 15.7031 277.391 15.6875H274.984V7.25H284.484V4.5H274.922V1.6875H287.953ZM297.047 18.1562V27.9375H278.297V18.1562H297.047ZM281.766 20.9062V25.125H293.578V20.9062H281.766ZM325.516 0.03125V28.25H322.172V0.03125H325.516ZM319.703 0.53125V26.9375H316.422V13.5H313.672C313.375 19.0312 311.047 22.3594 307.547 22.3438C303.828 22.3594 301.422 18.5312 301.422 12.25C301.422 6.01562 303.828 2.14062 307.547 2.15625C310.953 2.14062 313.266 5.34375 313.641 10.625H316.422V0.53125H319.703ZM307.547 5.46875C305.734 5.46875 304.641 7.84375 304.641 12.25C304.641 16.6562 305.734 19.0469 307.547 19.0625C309.391 19.0469 310.5 16.6562 310.484 12.25C310.5 7.84375 309.391 5.46875 307.547 5.46875ZM339.234 6.75C339.234 12 341.734 17.1719 346.234 19.1875L344.141 22C340.953 20.4375 338.719 17.4375 337.516 13.75C336.266 17.6406 333.953 20.8438 330.734 22.4688L328.547 19.6562C333.016 17.5469 335.703 12.2188 335.703 6.75V2.28125H339.234V6.75ZM352.516 0.03125V28.3125H349.016V11.9688H343.109V9.125H349.016V0.03125H352.516ZM11.2344 44.0625C11.2344 47.1406 13.5312 50.1406 17.9531 51.3438L16.3594 54.0938C13.125 53.2031 10.8281 51.3125 9.54688 48.9062C8.3125 51.6094 5.98438 53.75 2.60938 54.75L0.953125 52.0312C5.40625 50.7344 7.71875 47.4844 7.73438 44.0625V43.9375H1.85938V41.1562H7.73438V37.9375H11.2344V41.1562H17.1094V43.9375H11.2344V44.0625ZM23.3281 38.0625V44.9062H27.2969V47.8125H23.3281V55.1562H19.8281V38.0625H23.3281ZM14.1406 55.75C20.0312 55.7656 23.6562 57.6719 23.6406 61C23.6562 64.3125 20.0469 66.2344 14.1406 66.2188C8.23438 66.2344 4.59375 64.3125 4.60938 61C4.59375 57.6719 8.23438 55.7656 14.1406 55.75ZM14.1406 58.4375C10.2656 58.4375 8.07812 59.3125 8.07812 61C8.07812 62.6562 10.25 63.5312 14.1406 63.5312C18.0312 63.5312 20.1875 62.6562 20.2031 61C20.1875 59.3125 18 58.4375 14.1406 58.4375ZM37.8906 39.9688C42.3594 39.9844 45.6562 42.8125 45.6719 46.8125C45.6562 50.8281 42.3594 53.6719 37.8906 53.6562C33.4531 53.6719 30.125 50.8281 30.1406 46.8125C30.125 42.8125 33.4531 39.9844 37.8906 39.9688ZM37.8906 43C35.4062 43.0156 33.5625 44.4531 33.5469 46.8125C33.5625 49.1719 35.4062 50.6562 37.8906 50.6562C40.375 50.6562 42.2188 49.1719 42.2031 46.8125C42.2188 44.4531 40.375 43.0156 37.8906 43ZM52.2344 38.0312V66.3125H48.7344V38.0312H52.2344ZM28.8594 57.5312C33.8594 57.5469 40.9844 57.5 47.0781 56.5938L47.3281 59.1562C41.0781 60.3594 34.25 60.4219 29.2969 60.4375L28.8594 57.5312ZM69.8594 39.6875V48.25H60.9844V51.6875C65.5156 51.6719 68.0938 51.5312 71.1094 51L71.4531 53.8125C68.0625 54.4062 65.2344 54.5 59.6094 54.5H57.5156V45.625H66.3906V42.5H57.4531V39.6875H69.8594ZM80.0469 38.0625V55.4375H76.5156V50.8125H71.6094V48H76.5156V44.875H71.6094V42.0625H76.5156V38.0625H80.0469ZM80.0469 56.7812V66.2812H76.5156V59.625H60.7031V56.7812H80.0469ZM96.8906 38.4688C103.312 38.4688 107.094 40.1875 107.078 43.3125C107.094 46.4375 103.312 48.1719 96.8906 48.1562C90.4844 48.1719 86.6875 46.4375 86.7031 43.3125C86.6875 40.1875 90.4844 38.4688 96.8906 38.4688ZM96.8906 41.0625C92.5625 41.0781 90.3438 41.8438 90.3281 43.3125C90.3438 44.8281 92.5625 45.5625 96.8906 45.5625C101.219 45.5625 103.453 44.8281 103.453 43.3125C103.453 41.8438 101.219 41.0781 96.8906 41.0625ZM109.766 49.6875V52.4688H84.0156V49.6875H109.766ZM106.578 54.375V61.2812H90.5469V63.3438H107.359V66.0312H87.0781V58.8125H103.109V57H87.0156V54.375H106.578ZM123.953 39.25V42.8438H130.516V39.25H133.984V51.5938H120.484V39.25H123.953ZM123.953 48.8125H130.516V45.5H123.953V48.8125ZM141.797 38.0625V43.6875H145.734V46.5938H141.797V52.4688H138.297V38.0625H141.797ZM141.797 53.625V61.0312H126.828V63.2812H142.734V66.0312H123.359V58.4688H138.359V56.375H123.297V53.625H141.797ZM170.828 38.0625V66.2812H167.328V38.0625H170.828ZM147.297 55.5C152.703 55.5156 159.594 55.5 165.641 54.8125L165.859 57.3438C163.344 57.7188 160.766 57.9531 158.234 58.0938V65.75H154.703V58.2188C152.219 58.3125 149.828 58.3125 147.672 58.3125L147.297 55.5ZM164.828 40.8438V43.5625H148.172V40.8438H154.734V37.8125H158.234V40.8438H164.828ZM156.484 44.5C160.531 44.5156 163.328 46.4062 163.328 49.25C163.328 52.125 160.531 54 156.484 54C152.453 54 149.625 52.125 149.609 49.25C149.625 46.4062 152.438 44.5156 156.484 44.5ZM156.484 47.125C154.391 47.1094 152.969 47.875 152.953 49.25C152.969 50.625 154.391 51.4062 156.484 51.4062C158.594 51.4062 160 50.625 159.984 49.25C160 47.875 158.594 47.1094 156.484 47.125ZM197.016 38.0625V49.25H201.328V52.1875H197.016V66.25H193.484V38.0625H197.016ZM191.359 42.3438V45.1562H174.703V42.3438H181.328V38.4688H184.859V42.3438H191.359ZM183.109 47.0312C187.203 47.0156 190.219 49.7656 190.203 53.6562C190.219 57.5469 187.203 60.2969 183.109 60.2812C179.016 60.2969 176 57.5469 176.016 53.6562C176 49.7656 179.016 47.0156 183.109 47.0312ZM183.109 49.9062C180.922 49.9062 179.359 51.3594 179.359 53.6562C179.359 55.9531 180.922 57.4219 183.109 57.4062C185.281 57.4219 186.859 55.9531 186.859 53.6562C186.859 51.3594 185.281 49.9062 183.109 49.9062ZM225.547 40.5938V43.3125C225.547 46.8281 225.547 50.7812 224.453 56.6875L220.953 56.2812C222.016 50.7969 222.031 46.8125 222.047 43.4375H205.172V40.5938H225.547ZM228.266 59.7812V62.6562H202.516V59.7812H211.953V49.9688H215.484V59.7812H228.266ZM264.328 48.9062V51.8125H260.141V66.2188H256.609V38.0312H260.141V48.9062H264.328ZM242.453 40.75V56.3125C246.281 56.2656 250.25 55.9531 254.484 55.125L254.859 58C250.078 59 245.516 59.25 241.328 59.25H238.984V40.75H242.453ZM279.984 40.4375V53.875H266.609V40.4375H279.984ZM270.047 43.25V51.0625H276.547V43.25H270.047ZM287.922 38.0312V46.3438H291.891V49.25H287.922V58.6562H284.422V38.0312H287.922ZM289.078 62.875V65.7188H269.828V56.6562H273.359V62.875H289.078ZM302.484 39.9688C306.953 39.9844 310.25 42.8125 310.266 46.8125C310.25 50.8281 306.953 53.6719 302.484 53.6562C298.047 53.6719 294.719 50.8281 294.734 46.8125C294.719 42.8125 298.047 39.9844 302.484 39.9688ZM302.484 43C300 43.0156 298.156 44.4531 298.141 46.8125C298.156 49.1719 300 50.6562 302.484 50.6562C304.969 50.6562 306.812 49.1719 306.797 46.8125C306.812 44.4531 304.969 43.0156 302.484 43ZM316.828 38.0312V66.3125H313.328V38.0312H316.828ZM293.453 57.5312C298.453 57.5469 305.578 57.5 311.672 56.5938L311.922 59.1562C305.672 60.3594 298.844 60.4219 293.891 60.4375L293.453 57.5312ZM337.641 43.125C337.641 46.2656 339.391 49.3906 343.109 50.9062L341.266 53.5938C338.766 52.5781 337.016 50.7344 336.016 48.4688C334.953 51.0156 333.125 53.1719 330.453 54.3438L328.578 51.5938C332.438 49.8906 334.25 46.3281 334.266 43.125V39.6875H337.641V43.125ZM352.984 38.0625V55.125H349.641V47.9375H346.891V55H343.578V38.5H346.891V45.0938H349.641V38.0625H352.984ZM352.984 56.5V66.25H349.484V59.3125H333.578V56.5H352.984ZM378.766 38.0312V43.7188H382.703V46.6562H378.766V52.3438H375.234V38.0312H378.766ZM378.766 53.5625V60.9375H363.609V63.1562H379.797V65.9375H360.172V58.375H375.297V56.2812H360.109V53.5625H378.766ZM364.766 39.4688C364.766 45.0781 363.078 48.5938 358.547 51.7812L356.266 49.5938C359.281 47.6094 360.906 45.6406 361.391 42.2812H357.172V39.4688H364.766ZM372.797 39.4688C372.797 45.2656 371.281 49.2344 366.734 52.6875L364.297 50.625C367.531 48.2969 369.031 45.9375 369.453 42.2812H365.828V39.4688H372.797ZM409.922 60.125V63H384.141V60.125H395.234V55.5312H387.203V46.2812H403.422V42.7812H387.141V39.9688H406.922V49.0625H390.672V52.7188H407.578V55.5312H398.734V60.125H409.922ZM109.203 78.7812V81.9375C109.188 85.7656 109.188 89.6875 108.172 95.5938L104.641 95.25C105.719 89.7344 105.719 85.6406 105.703 81.9375V81.5938H89.4219V78.7812H109.203ZM112.484 97.5312V100.438H86.7344V97.5312H112.484ZM137.922 76.0625V92.7812H134.391V76.0625H137.922ZM128.828 77.6875V85.9062H119.297V88.8438C124.219 88.8281 127.609 88.6719 131.609 88.0312L132.016 90.8438C127.609 91.5781 123.703 91.7031 118.266 91.6875H115.859V83.25H125.359V80.5H115.797V77.6875H128.828ZM137.922 94.1562V103.938H119.172V94.1562H137.922ZM122.641 96.9062V101.125H134.453V96.9062H122.641ZM154.891 76.4688C161.312 76.4688 165.094 78.1875 165.078 81.3125C165.094 84.4375 161.312 86.1719 154.891 86.1562C148.484 86.1719 144.688 84.4375 144.703 81.3125C144.688 78.1875 148.484 76.4688 154.891 76.4688ZM154.891 79.0625C150.562 79.0781 148.344 79.8438 148.328 81.3125C148.344 82.8281 150.562 83.5625 154.891 83.5625C159.219 83.5625 161.453 82.8281 161.453 81.3125C161.453 79.8438 159.219 79.0781 154.891 79.0625ZM167.766 87.6875V90.4688H142.016V87.6875H167.766ZM164.578 92.375V99.2812H148.547V101.344H165.359V104.031H145.078V96.8125H161.109V95H145.016V92.375H164.578ZM200.016 78.7812V81.9375C200 85.7656 200 89.6875 198.984 95.5938L195.453 95.25C196.531 89.7344 196.531 85.6406 196.516 81.9375V81.5938H180.234V78.7812H200.016ZM203.297 97.5312V100.438H177.547V97.5312H203.297ZM228.859 76.0312V104.312H225.359V92.7188H220.203V89.875H225.359V85.0312H220.297V82.1875H225.359V76.0312H228.859ZM218.766 78.4688V89.0938H209.672V95.0312C213.391 95 216.641 94.8438 220.422 94.2812L220.734 97.1562C216.422 97.8125 212.828 97.9375 208.391 97.9375H206.203V86.2812H215.297V81.3125H206.141V78.4688H218.766ZM258.641 98V100.875H232.859V98H243.953V92.5H235.703V77.9062H239.172V82.5H252.234V77.9062H255.734V92.5H247.453V98H258.641ZM239.172 89.6875H252.234V85.2812H239.172V89.6875ZM269.328 83.375C269.328 87.9531 270.891 92.7031 274.734 95.0938L272.797 97.8438C270.281 96.3125 268.625 93.6875 267.703 90.5938C266.641 94.1406 264.766 96.9062 262.172 98.4688L260.047 95.8125C264.125 93.3906 265.938 88.3594 265.953 83.5625V78.5625H269.328V83.375ZM284.859 76.0312V104.25H281.516V76.0312H284.859ZM279.016 76.5312V102.938H275.703V88.625H271.734V85.75H275.703V76.5312H279.016ZM313.953 97.9688V100.875H288.172V97.9688H294.078V90.8125C291.844 89.5312 290.484 87.5156 290.484 85.0312C290.484 80.5 294.938 77.5781 301.016 77.5625C307.125 77.5781 311.547 80.5 311.547 85.0312C311.547 87.5156 310.203 89.5156 307.984 90.8125V97.9688H313.953ZM301.016 80.3125C296.828 80.3281 293.938 82.0938 293.922 85.0312C293.938 87.9531 296.828 89.7344 301.016 89.75C305.219 89.7344 308.109 87.9531 308.109 85.0312C308.109 82.0938 305.219 80.3281 301.016 80.3125ZM297.578 97.9688H304.484V92.125C303.406 92.3594 302.25 92.4688 301.016 92.4688C299.797 92.4688 298.641 92.3594 297.578 92.125V97.9688ZM322.078 94.0312H318.016V78.875H322.078V94.0312ZM320.047 101.812C318.578 101.812 317.516 100.781 317.516 99.375C317.516 97.9688 318.578 96.9375 320.047 96.9375C321.5 96.9375 322.578 97.9688 322.578 99.375C322.578 100.781 321.5 101.812 320.047 101.812Z" fill="white"/>
</svg>
