<svg width="300" height="300" viewBox="0 0 300 300" fill="none" xmlns="http://www.w3.org/2000/svg">
<mask id="mask0_54_880" style="mask-type:luminance" maskUnits="userSpaceOnUse" x="0" y="0" width="300" height="300">
<path d="M0 0H300V300H0V0Z" fill="white"/>
</mask>
<g mask="url(#mask0_54_880)">
<mask id="mask1_54_880" style="mask-type:luminance" maskUnits="userSpaceOnUse" x="37" y="24" width="226" height="383">
<path d="M37.5 24H262.5V406.5H37.5V24Z" fill="white"/>
</mask>
<g mask="url(#mask1_54_880)">
<path d="M227.487 134.122C214.207 231.822 227.104 283.696 261.352 374.616C192.045 412.038 151.604 416.333 75.3826 380.915C113.76 314.316 131.556 273.503 146.556 185.084C103.565 166.196 80.9536 154.246 44.9616 128.969C35.3842 112.756 38.4596 102.456 44.9616 83.733C53.6907 58.0061 63.0672 54.0537 83.9922 56.8205C125.859 72.8293 151.294 79.5227 199.362 88.3138C207.368 67.9411 212.878 60.8963 227.487 68.8452C239.104 80.8997 238.072 88.7912 222.321 104.919C239.263 100.97 248.338 99.3324 254.464 110.073C258.211 121.8 254.45 127.417 227.487 134.122Z" fill="#00B7A4" stroke="#00B7A4" stroke-width="0.333333"/>
<path d="M226.671 283.741L219.171 259.156C218.984 258.544 218.548 258.037 217.97 257.759L204.225 251.157C203.683 250.897 203.059 250.859 202.49 251.054C191.158 254.93 185.545 257.963 185.02 270.052C185.015 270.162 185.018 270.277 185.03 270.386C186.404 283.325 188.212 290.224 195.35 299.814C195.71 300.298 196.255 300.616 196.854 300.696C205.382 301.833 210.676 301.562 219.443 299.676C220.168 299.52 220.771 299.019 221.06 298.337L226.589 285.3C226.798 284.806 226.827 284.254 226.671 283.741Z" fill="#00645A" stroke="#00B7A4" stroke-width="0.333333"/>
<path d="M175.721 223.03L168.116 214.021C167.565 213.368 166.695 213.074 165.861 213.265C160.126 214.579 156.469 215.778 150.936 219.723C150.344 220.145 150 220.831 150 221.555V241.314C150 242.184 150.494 242.983 151.283 243.353C157.49 246.261 161.732 246.96 168.601 246.791C169.507 246.768 170.308 246.201 170.639 245.361C173.771 237.378 174.923 232.549 176.227 224.883C176.34 224.223 176.154 223.544 175.721 223.03Z" fill="#00645A" stroke="#00B7A4" stroke-width="0.333333"/>
<path d="M163.775 148.828C151.095 148.828 140.816 138.574 140.816 125.924C140.816 113.274 151.095 103.02 163.775 103.02C176.456 103.02 186.735 113.274 186.735 125.924C186.735 138.574 176.456 148.828 163.775 148.828Z" fill="white"/>
<path fill-rule="evenodd" clip-rule="evenodd" d="M184.936 47.7577C183.213 46.0925 182.143 43.76 182.143 41.1783C182.143 36.1184 186.255 32.0166 191.326 32.0166C196.398 32.0166 200.51 36.1184 200.51 41.1783C200.51 46.2382 196.398 50.34 191.326 50.34C190.827 50.34 190.337 50.3002 189.859 50.2237C189.858 50.4006 189.836 50.5793 189.793 50.7564L180.777 87.2643C180.56 88.1406 179.848 88.8083 178.958 88.9698L177.597 89.2167C175.959 89.5139 174.558 88.0272 174.956 86.4146L184.23 48.9248C184.348 48.4475 184.602 48.0513 184.936 47.7577Z" fill="#034C45"/>
<path fill-rule="evenodd" clip-rule="evenodd" d="M163.124 39.7411C161.401 38.0759 160.332 35.7434 160.332 33.1617C160.332 28.1018 164.443 24 169.515 24C174.587 24 178.699 28.1018 178.699 33.1617C178.699 38.2216 174.587 42.3234 169.515 42.3234C169.016 42.3234 168.526 42.2836 168.048 42.2071C168.047 42.384 168.025 42.5627 167.982 42.7398L158.965 79.2477C158.748 80.124 158.037 80.7917 157.147 80.9532L155.786 81.2001C154.147 81.4973 152.747 80.0106 153.145 78.398L162.418 40.9082C162.537 40.4309 162.79 40.0347 163.124 39.7411Z" fill="#034C45"/>
<path d="M150.682 124.007C149.114 123.365 148.341 121.557 149.252 120.131C149.913 119.096 150.683 118.133 151.553 117.259C153.147 115.657 155.04 114.385 157.125 113.514C159.211 112.643 161.45 112.19 163.71 112.181C165.972 112.173 168.212 112.609 170.305 113.464C172.398 114.319 174.3 115.578 175.905 117.167C177.511 118.756 178.786 120.645 179.659 122.726C180.532 124.807 180.986 127.039 180.995 129.294C180.999 130.526 180.871 131.753 180.614 132.952C180.259 134.606 178.437 135.353 176.869 134.712C175.301 134.071 174.598 132.275 174.788 130.595C174.836 130.171 174.859 129.745 174.857 129.318C174.852 127.866 174.559 126.43 173.998 125.09C173.436 123.751 172.615 122.535 171.582 121.512C170.548 120.49 169.325 119.68 167.978 119.13C166.63 118.579 165.189 118.299 163.734 118.305C162.279 118.309 160.838 118.601 159.496 119.161C158.154 119.722 156.935 120.541 155.91 121.572C155.608 121.875 155.324 122.195 155.061 122.53C154.014 123.86 152.25 124.648 150.682 124.007Z" fill="black"/>
<path d="M79.1744 120.878C80.2764 121.454 80.7104 122.82 80.0296 123.859C79.2123 125.107 78.2813 126.264 77.2596 127.299C75.7282 128.851 74.0223 130.098 72.2407 130.968C70.4591 131.837 68.6361 132.314 66.8763 132.369C65.1165 132.424 63.4542 132.056 61.9837 131.288C60.5132 130.52 59.263 129.366 58.3068 127.891C57.3494 126.416 56.7031 124.651 56.4058 122.694C56.1073 120.738 56.1635 118.63 56.5699 116.489C56.8408 115.063 57.2644 113.64 57.8269 112.258C58.2953 111.109 59.6683 110.687 60.7703 111.263C61.8723 111.839 62.2787 113.194 61.8735 114.367C61.6496 115.017 61.4729 115.679 61.3466 116.34C61.0848 117.717 61.0493 119.074 61.241 120.334C61.4327 121.592 61.8482 122.728 62.4647 123.678C63.08 124.627 63.8847 125.369 64.8306 125.864C65.7766 126.359 66.8476 126.595 67.9795 126.559C69.1125 126.524 70.2857 126.218 71.4326 125.658C72.5794 125.098 73.6768 124.296 74.6618 123.297C75.1359 122.817 75.5801 122.296 75.9876 121.741C76.7235 120.74 78.0723 120.303 79.1744 120.878Z" fill="black"/>
</g>
</g>
</svg>
