<svg width="420" height="330" viewBox="0 0 420 330" fill="none" xmlns="http://www.w3.org/2000/svg">
<g clip-path="url(#clip0_67_1349)">
<path d="M180.12 133.425C186.514 127.192 188.747 116.92 185.107 110.482C181.467 104.044 173.333 103.877 166.939 110.11C160.544 116.343 151.558 133.198 155.198 139.636C158.837 146.075 173.725 139.658 180.12 133.425ZM158.053 136.805C156.691 136.151 156.32 134.096 157.225 132.215C158.129 130.334 159.967 129.339 161.329 129.993C162.691 130.647 163.062 132.702 162.157 134.583C161.252 136.464 159.415 137.459 158.053 136.805Z" fill="#3F3D56"/>
<path d="M172.218 128.683C171.602 128.12 170.987 127.558 170.371 126.996C169.526 126.32 168.834 125.473 168.34 124.51C167.806 123.166 167.672 121.697 167.953 120.279C168.288 118.222 169.249 116.319 170.705 114.827L170.606 116.259C171.346 115.395 172.216 114.652 173.185 114.056C174.097 113.586 175.1 113.619 175.496 114.455C175.95 115.413 175.518 117.131 176.133 117.9C177.197 119.229 179.969 116.358 181.138 117.539C181.82 118.227 181.497 119.86 181.14 121.234C180.772 122.932 180.19 124.576 179.409 126.127C177.985 128.688 175.386 130.381 173.628 129.69C173.101 129.442 172.623 129.101 172.218 128.683Z" fill="#00B7A4"/>
<path d="M166.765 129.026C166.441 127.929 167.107 126.502 167.737 125.3L168.056 124.971C168.712 124.641 169.424 124.436 170.155 124.366C170.495 124.341 170.833 124.432 171.114 124.624C171.396 124.816 171.604 125.097 171.704 125.423C171.89 126.067 171.74 126.987 172.186 127.363C173.05 128.091 174.782 125.837 175.606 126.622C176.068 127.063 175.734 128.2 175.139 128.758C174.577 129.226 173.883 129.507 173.154 129.564C172.096 129.74 171.039 129.915 169.982 130.091C169.363 130.233 168.725 130.265 168.095 130.186C167.787 130.137 167.499 130.002 167.264 129.797C167.029 129.592 166.856 129.325 166.765 129.026Z" fill="#2F2E41"/>
<path d="M163.277 129.843C163.5 128.22 164.742 125.609 165.85 123.377L166.282 122.698C166.9 121.96 167.612 121.307 168.4 120.754C169.003 120.425 169.421 120.668 169.269 121.746C169.135 122.7 168.578 124.255 168.796 124.657C169.216 125.434 171.775 120.995 172.134 121.884C172.336 122.383 171.518 124.372 170.739 125.548C170.179 126.412 169.463 127.164 168.627 127.766C167.619 128.537 166.611 129.308 165.604 130.079C165.11 130.527 164.534 130.875 163.907 131.102C163.441 131.186 163.142 130.827 163.277 129.843Z" fill="#FF6584"/>
<path d="M163.627 135.74C163.477 135.013 163.17 134.326 162.726 133.73C162.282 133.134 161.713 132.642 161.059 132.289C160.404 131.936 159.68 131.731 158.938 131.688C158.195 131.645 157.452 131.766 156.762 132.041L144.937 118.378L142.388 127.412L154.007 139.001C154.547 140.13 155.481 141.022 156.635 141.508C157.789 141.995 159.081 142.041 160.266 141.64C161.452 141.238 162.449 140.415 163.068 139.328C163.688 138.241 163.886 136.964 163.627 135.74Z" fill="#FFB8B8"/>
<path d="M124.375 83.7073L121.24 89.0147C121.24 89.0147 129.512 93.109 129.672 96.3413C129.833 99.5737 130.425 98.754 131.656 99.6413C132.886 100.529 134.345 102.827 134.392 105.354C134.438 107.881 154.003 127.458 154.003 127.458L148.674 134.836C146.94 133.222 145.011 131.831 142.932 130.695C139.764 129.034 130.973 125.953 130.335 124.246C129.696 122.539 127.124 121.297 124.662 119.523C122.201 117.748 127.476 116.242 123.374 113.284C119.272 110.326 97.014 87.0413 93.0261 84.7893C89.0381 82.5372 89.0127 75.6626 89.0127 75.6626L91.9729 71.564L124.375 83.7073Z" fill="#3F3D56"/>
<path d="M302.64 222.302V219.709C302.709 218.944 302.709 218.174 302.64 217.408V5.45929C302.64 4.144 302.117 2.88259 301.187 1.95254C300.256 1.02249 298.993 0.5 297.677 0.5C296.36 0.5 295.098 1.02249 294.167 1.95254C293.236 2.88259 292.713 4.144 292.713 5.45929V217.408C292.644 218.174 292.644 218.944 292.713 219.709V222.302L242.465 325.022C243.65 326.207 245.057 327.146 246.606 327.787C248.154 328.428 249.814 328.757 251.49 328.757C253.166 328.757 254.826 328.428 256.374 327.787C257.923 327.146 259.33 326.207 260.515 325.022L292.713 243.4V323.798C292.713 325.113 293.236 326.375 294.167 327.305C295.098 328.235 296.36 328.757 297.677 328.757C298.993 328.757 300.256 328.235 301.187 327.305C302.117 326.375 302.64 325.113 302.64 323.798V243.4L334.838 325.022C336.024 326.207 337.431 327.146 338.979 327.787C340.528 328.428 342.187 328.757 343.863 328.757C345.54 328.757 347.199 328.428 348.748 327.787C350.296 327.146 351.703 326.207 352.888 325.022L302.64 222.302Z" fill="#E6E6E6"/>
<path d="M54.8934 298.5C49.4876 293.165 44.8832 287.075 41.2231 280.422C37.574 273.803 34.8788 266.702 33.2172 259.329C31.5327 251.847 30.9747 244.156 31.5618 236.51C32.7793 220.936 38.5387 206.061 48.1278 193.724C48.7134 192.974 49.3129 192.234 49.9265 191.507C50.6106 190.693 51.773 191.865 51.0937 192.673C41.3084 204.396 35.178 218.728 33.4609 233.897C32.219 245.488 33.6057 257.209 37.5181 268.191C41.4304 279.173 47.7681 289.134 56.0605 297.334C56.818 298.081 55.6508 299.247 54.8934 298.5Z" fill="#E6E6E6"/>
<path d="M47.4625 195.125C48.1307 194.875 48.7851 194.589 49.4228 194.27C49.455 194.319 49.4865 194.37 49.5188 194.419L47.4625 195.125Z" fill="#E6E6E6"/>
<path d="M60.2056 180.577C59.9355 182.088 59.4478 183.552 58.7578 184.924C56.8523 188.747 53.8173 191.893 50.0634 193.936C49.8556 194.047 49.6408 194.165 49.4261 194.268C49.1697 193.867 48.9065 193.466 48.6571 193.064C46.9737 190.371 45.4772 187.54 44.7914 184.453C43.9878 180.847 44.4242 176.798 46.7381 173.911C49.045 171.025 53.4511 169.731 56.6448 171.599C57.5669 172.15 58.3493 172.905 58.931 173.808C58.6123 174.202 58.2936 174.59 57.9749 174.984C57.9469 175.021 57.9168 175.055 57.8849 175.088C57.6077 175.434 57.3237 175.773 57.0466 176.119C55.8897 177.538 54.7396 178.964 53.5827 180.376C55.2134 180.676 56.8728 180.79 58.5291 180.716C58.6608 180.709 58.7993 180.702 58.9309 180.695C59.3535 180.667 59.7831 180.632 60.2056 180.577Z" fill="#E6E6E6"/>
<path d="M36.8383 208.964L36.3949 214.736L36.2772 216.301C36.1525 216.239 36.0209 216.176 35.8962 216.114C31.587 213.977 27.784 210.945 24.7411 207.222C21.6983 203.499 19.4857 199.17 18.2512 194.525C17.8384 192.913 17.5489 191.273 17.3852 189.617C19.6298 189.271 21.8813 188.918 24.1259 188.572C22.3086 186.21 20.0323 184.239 17.4337 182.778C18.0263 177.001 20.1155 171.479 23.4955 166.754C24.0774 176.431 34.2196 182.585 37.9329 191.535C39.0721 194.335 39.5653 197.357 39.3758 200.374C39.1863 203.391 38.319 206.327 36.8383 208.964Z" fill="#E6E6E6"/>
<path d="M34.9124 259.666C34.3721 259.694 33.8317 259.708 33.2983 259.701C28.688 259.671 24.1323 258.702 19.9104 256.851C15.6886 255 11.8896 252.307 8.74633 248.937C6.20189 246.153 4.15605 242.952 2.69839 239.475C2.74689 239.468 2.78846 239.461 2.83695 239.454C5.08154 239.108 7.33306 238.755 9.57765 238.409C7.19374 235.305 4.02533 232.892 0.398367 231.418C-0.0921466 228.29 -0.129469 225.108 0.287545 221.97C5.35867 230.227 17.212 230.892 24.7009 237.039C28.2725 240.013 30.7072 244.128 31.5941 248.688C31.8151 249.815 31.9334 250.959 31.9474 252.107C31.9543 252.384 31.9543 252.654 31.9474 252.924L32.1136 253.298L34.9124 259.666Z" fill="#E6E6E6"/>
<path d="M57.1921 269.225C55.7581 270.983 54.324 272.755 52.89 274.513C54.653 274.837 56.4491 274.944 58.2382 274.832C56.6495 280.517 53.5996 285.688 49.3914 289.831C48.9966 290.219 48.5878 290.6 48.1722 290.96C48.089 291.036 47.999 291.112 47.9158 291.188L47.5417 290.129L47.5348 290.122L45.4149 284.259C42.7254 281.558 40.8628 278.145 40.0459 274.423V274.409C39.549 272.231 39.4342 269.982 39.7065 267.765C40.8911 258.15 49.0243 249.505 47.0014 240.029C51.4586 243.636 54.9169 248.323 57.0466 253.644C55.8897 255.063 54.7397 256.489 53.5827 257.901C55.2134 258.201 56.8728 258.314 58.5292 258.24C59.1093 260.583 59.4254 262.984 59.4713 265.397C59.4782 265.743 59.4782 266.083 59.4713 266.429C58.7439 267.328 58.0096 268.221 57.2822 269.121C57.2541 269.158 57.2241 269.192 57.1921 269.225Z" fill="#E6E6E6"/>
<path d="M338.61 316.985C337.744 309.443 337.975 301.814 339.296 294.338C340.604 286.895 342.958 279.673 346.287 272.888C349.667 266.002 354.056 259.659 359.309 254.068C370.026 242.695 383.844 234.709 399.054 231.098C399.981 230.88 400.912 230.68 401.847 230.497C402.89 230.291 403.061 231.932 402.025 232.136C387.047 235.145 373.28 242.476 362.428 253.221C354.19 261.476 347.919 271.479 344.08 282.487C340.241 293.495 338.932 305.225 340.251 316.808C340.373 317.863 338.733 318.041 338.61 316.985Z" fill="#E6E6E6"/>
<path d="M397.658 231.773C398.335 231.997 399.024 232.185 399.721 232.335C399.715 232.394 399.708 232.453 399.702 232.512L397.658 231.773Z" fill="#E6E6E6"/>
<path d="M416.712 228.416C415.554 229.424 414.255 230.26 412.857 230.897C408.975 232.683 404.636 233.234 400.43 232.476C400.198 232.432 399.957 232.389 399.725 232.336C399.777 231.863 399.823 231.385 399.881 230.916C400.258 227.763 400.867 224.62 402.269 221.785C403.905 218.472 406.784 215.589 410.398 214.789C414.006 213.984 418.251 215.734 419.568 219.19C419.942 220.196 420.077 221.275 419.965 222.342C419.469 222.45 418.978 222.553 418.482 222.661C418.437 222.671 418.392 222.68 418.346 222.685C417.913 222.781 417.479 222.868 417.046 222.964C415.255 223.345 413.464 223.737 411.677 224.113C412.76 225.367 413.982 226.495 415.319 227.474C415.426 227.551 415.538 227.632 415.645 227.709C415.992 227.952 416.348 228.194 416.712 228.416Z" fill="#E6E6E6"/>
<path d="M380.698 235.906L376.732 240.127L375.659 241.272C375.601 241.145 375.538 241.015 375.479 240.888C373.462 236.524 372.399 231.781 372.363 226.974C372.327 222.168 373.318 217.409 375.27 213.016C375.959 211.501 376.762 210.042 377.673 208.649C379.639 209.785 381.615 210.919 383.581 212.055C383.647 209.077 383.109 206.116 382 203.35C386.085 199.219 391.177 196.223 396.774 194.658C391.159 202.563 395.203 213.709 392.483 223.009C391.614 225.905 390.103 228.568 388.063 230.801C386.023 233.033 383.506 234.778 380.698 235.906Z" fill="#E6E6E6"/>
<path d="M347.397 274.212C346.958 273.895 346.528 273.567 346.117 273.228C342.543 270.319 339.601 266.71 337.472 262.625C335.342 258.539 334.071 254.062 333.735 249.467C333.498 245.705 333.912 241.93 334.957 238.307C334.999 238.332 335.035 238.353 335.078 238.377C337.044 239.513 339.02 240.648 340.986 241.784C341.075 237.872 340.119 234.008 338.218 230.588C339.797 227.844 341.764 225.34 344.057 223.156C342.83 232.766 351.65 240.706 353.631 250.185C354.549 254.739 353.865 259.47 351.696 263.579C351.162 264.595 350.536 265.561 349.827 266.465C349.659 266.685 349.489 266.895 349.315 267.101L349.21 267.497L347.397 274.212Z" fill="#E6E6E6"/>
<path d="M358.763 295.611C356.543 296.083 354.314 296.566 352.094 297.038C353.265 298.395 354.598 299.603 356.062 300.635C351.258 304.071 345.638 306.191 339.76 306.785C339.209 306.84 338.652 306.881 338.102 306.901C337.99 306.908 337.872 306.911 337.759 306.918L338.132 305.859L338.131 305.849L340.156 299.953C339.755 296.163 340.443 292.338 342.141 288.926L342.15 288.915C343.129 286.906 344.45 285.082 346.053 283.525C353.007 276.774 364.767 275.129 369.134 266.478C370.345 272.08 370.1 277.898 368.423 283.378C366.631 283.759 364.841 284.15 363.053 284.526C364.136 285.781 365.358 286.909 366.695 287.888C365.678 290.077 364.418 292.146 362.94 294.055C362.729 294.329 362.516 294.594 362.294 294.859C361.162 295.105 360.03 295.341 358.899 295.587C358.854 295.597 358.809 295.605 358.763 295.611Z" fill="#E6E6E6"/>
<path d="M389.596 187.3H205.758C203.621 187.297 201.572 186.448 200.061 184.938C198.55 183.429 197.7 181.382 197.697 179.246V50.8255C197.699 48.6903 198.549 46.6432 200.061 45.1334C201.572 43.6236 203.621 42.7743 205.758 42.772H389.596C391.733 42.7744 393.782 43.6237 395.293 45.1335C396.804 46.6433 397.654 48.6904 397.656 50.8255V179.246C397.654 181.382 396.804 183.428 395.293 184.938C393.782 186.448 391.733 187.297 389.596 187.3Z" fill="#F2F2F2"/>
<path d="M324.858 50.8014H270.496C267.049 50.7975 263.745 49.4278 261.308 46.9929C258.871 44.5579 257.5 41.2564 257.496 37.8128V37.5767H337.858V37.8128C337.854 41.2564 336.483 44.5579 334.046 46.9929C331.609 49.4278 328.305 50.7975 324.858 50.8014Z" fill="#E6E6E6"/>
<path d="M325.094 195.329H270.732C267.285 195.325 263.981 193.956 261.544 191.521C259.107 189.086 257.736 185.784 257.732 182.341V182.104H338.094V182.341C338.09 185.784 336.719 189.086 334.282 191.521C331.845 193.956 328.541 195.325 325.094 195.329Z" fill="#E6E6E6"/>
<path d="M311.858 162.503C311.858 170.329 305.982 161.559 298.15 161.559C294.388 161.559 290.781 160.066 288.122 157.408C285.462 154.751 283.968 151.147 283.968 147.389C283.968 143.631 285.462 140.027 288.122 137.37C290.781 134.713 294.388 133.22 298.15 133.22C305.982 133.22 311.858 154.678 311.858 162.503Z" fill="#00B7A4"/>
<path d="M257.496 91.6562C257.496 95.4142 256.002 99.0182 253.342 101.675C250.683 104.333 247.075 105.826 243.314 105.826C235.482 105.826 231.496 121.68 231.496 113.855C231.496 106.029 235.482 77.4868 243.314 77.4868C247.075 77.4868 250.683 78.9797 253.342 81.6369C256.002 84.2942 257.496 87.8982 257.496 91.6562Z" fill="#00B7A4"/>
<path d="M238.407 76.0351C240.454 74.8422 242.96 75.2524 244.905 76.4609C247.116 77.8355 248.34 80.203 248.879 82.6882C249.419 85.3587 249.41 88.1113 248.852 90.7781C248.324 93.3498 246.974 96.0822 244.234 96.8203C242.407 97.3123 240.367 96.6782 239.701 94.7956C239.445 94.0396 239.388 93.2304 239.536 92.446C239.683 91.6616 240.031 90.9285 240.545 90.3174C242.082 88.5891 244.762 88.4999 246.774 89.3624C249.141 90.3767 250.584 92.6662 251.192 95.0893C251.915 97.9701 251.46 100.958 250.699 103.782C249.872 106.851 248.778 109.851 247.793 112.872C245.873 118.764 244.107 124.766 243.648 130.975C242.946 140.459 246.071 151.403 254.747 156.49C259.431 159.236 265.066 159.674 270.309 158.59C275.838 157.446 280.777 154.593 285.065 150.992C287.293 149.089 289.39 147.037 291.341 144.851C291.929 144.143 292.714 143.626 293.596 143.365C294.479 143.104 295.42 143.112 296.298 143.386C300.809 144.818 299.978 152.033 295.515 152.918C293.487 153.32 291.289 152.346 289.788 151.03C288.145 149.531 286.996 147.571 286.491 145.406C285.356 140.857 286.681 135.848 289.374 132.09C292.417 127.843 297.341 125.199 302.215 123.627C307.763 121.836 313.574 121.309 319.344 120.725C325.248 120.127 331.216 119.43 336.791 117.284C341.277 115.542 345.444 113.072 349.123 109.972C356.539 103.775 361.793 95.383 364.124 86.0083C364.666 83.7423 365.019 81.4348 365.176 79.1101C365.238 78.2 363.82 78.2038 363.758 79.1101C363.064 89.2443 358.364 98.8843 351.255 106.081C347.71 109.686 343.559 112.642 338.991 114.813C333.489 117.412 327.506 118.432 321.499 119.083C315.364 119.748 309.152 120.14 303.191 121.848C297.922 123.358 292.669 125.919 289.079 130.177C285.914 133.932 284.18 139.083 284.798 143.99C285.372 148.555 288.286 153.255 293.073 154.248C295.319 154.713 297.644 154.121 299.142 152.317C299.973 151.291 300.503 150.054 300.674 148.745C300.844 147.436 300.649 146.105 300.108 144.901C299.419 143.6 298.269 142.602 296.884 142.101C295.499 141.6 293.976 141.632 292.613 142.191C291.616 142.649 290.736 143.328 290.041 144.176C285.95 148.658 281.305 152.842 275.715 155.355C270.5 157.698 264.358 158.579 258.844 156.787C248.404 153.392 244.404 141.466 245.034 131.445C245.446 124.886 247.418 118.551 249.456 112.345C250.497 109.176 251.683 106.016 252.414 102.757C253.069 99.8385 253.269 96.7469 252.315 93.8691C251.483 91.3573 249.806 89.1207 247.324 88.068C245.068 87.1119 242.305 87.1343 240.289 88.6422C237.374 90.8224 237.107 96.2278 240.707 97.9058C243.096 99.0192 245.973 98.1525 247.735 96.3035C249.71 94.2306 250.353 91.3091 250.576 88.5443C250.996 83.3199 249.843 77.0183 244.525 74.6608C242.333 73.6896 239.804 73.5803 237.691 74.8115C237.536 74.9097 237.424 75.0643 237.381 75.243C237.337 75.4216 237.365 75.6101 237.458 75.7688C237.55 75.9276 237.701 76.044 237.878 76.0937C238.056 76.1434 238.245 76.1224 238.407 76.0351Z" fill="#3F3D56"/>
<path d="M365.748 82.6823C365.748 90.9808 378.786 112.14 374.399 118.493C373.855 119.287 373.28 120.058 372.673 120.807C370.712 123.259 368.461 125.465 365.97 127.377C365.55 127.708 365.124 128.024 364.694 128.331C363.165 129.414 361.562 130.388 359.896 131.245C359.593 131.397 359.286 131.548 358.979 131.699C350.556 135.744 340.969 136.672 331.926 134.317C322.882 131.963 314.968 126.479 309.591 118.842C304.214 111.204 301.724 101.908 302.563 92.6086C303.403 83.3087 307.517 74.608 314.175 68.0548C314.524 67.7052 314.884 67.3652 315.252 67.0298C318.91 63.6814 323.168 61.0548 327.803 59.2886C327.808 59.2886 327.808 59.2839 327.813 59.2839C334.764 56.6467 342.317 56.0166 349.609 57.4655H349.619C349.78 57.4986 349.94 57.5316 350.101 57.5694C367.956 61.3432 365.748 63.7189 365.748 82.6823Z" fill="#00B7A4"/>
<path d="M359.901 131.066C359.906 131.126 359.905 131.186 359.896 131.245C359.593 131.397 359.286 131.548 358.979 131.699C358.842 131.656 358.721 131.573 358.632 131.46C358.543 131.347 358.491 131.209 358.482 131.066C358.424 130.352 358.286 129.647 358.071 128.964C356.228 123.032 349.761 120 344.117 118.928C337.21 117.61 329.944 118.158 323.374 115.31C320.679 114.214 318.293 112.48 316.42 110.256C314.46 107.806 313.475 104.72 313.655 101.589C314.042 94.2256 319.237 88.4634 321.015 81.5156C321.748 78.6534 321.748 75.6684 320.443 72.9668C319.337 70.6713 317.351 68.6546 314.704 68.3712C314.597 68.3633 314.494 68.3306 314.402 68.2757C314.31 68.2207 314.232 68.1451 314.175 68.0547C314.524 67.7052 314.884 67.3651 315.252 67.0298C315.732 67.1013 316.203 67.2232 316.656 67.3935C319.247 68.3853 321.048 70.6288 322.06 73.1462C323.227 76.0604 323.118 79.1966 322.305 82.1863C320.41 89.1576 314.841 95.2079 315.059 102.722C315.248 109.236 320.939 113.298 326.678 115.017C333.778 117.142 341.469 116.136 348.494 118.597C354.02 120.533 359.385 124.864 359.901 131.066Z" fill="#3F3D56"/>
<path d="M365.97 127.377C365.549 127.708 365.124 128.024 364.694 128.331C364.636 128.27 364.593 128.197 364.566 128.117C364.539 128.037 364.529 127.952 364.538 127.868C364.774 121.759 362.666 115.789 358.643 111.182C356.901 109.158 354.83 107.443 352.517 106.109C350.096 104.725 347.44 103.984 344.807 103.124C342.216 102.279 339.583 101.254 337.602 99.3219C335.584 97.3523 334.591 94.6838 334.289 91.9255C333.575 85.3886 336.851 79.3808 337.116 72.9432C337.234 70.0715 336.6 67.2802 334.818 64.9706C333.277 62.9774 331.003 61.6171 328.427 61.9194C327.576 62.0233 327.534 60.7764 328.271 60.5355C328.322 60.5191 328.374 60.508 328.427 60.5025C331.424 60.153 334.142 61.7966 335.924 64.1015C338 66.7795 338.718 70.0432 338.51 73.3824C338.104 79.8437 334.7 86.0546 335.806 92.6198C335.996 94.0008 336.474 95.3265 337.209 96.5112C337.945 97.6958 338.921 98.7129 340.075 99.4966C342.448 101.06 345.251 101.764 347.927 102.633C350.596 103.447 353.119 104.681 355.4 106.288C357.632 107.921 359.589 109.9 361.196 112.15C364.402 116.572 366.078 121.918 365.97 127.377Z" fill="#3F3D56"/>
<path d="M374.399 118.493C373.855 119.287 373.28 120.058 372.673 120.808C373.305 117.138 373.165 113.377 372.262 109.765C371.158 105.217 368.924 101.021 365.767 97.5651C364.185 95.8449 362.364 94.3608 360.359 93.1584C358.066 91.7887 355.561 90.6316 353.94 88.4211C350.423 83.6224 352.796 77.3596 353.93 72.2019C354.526 69.5097 354.847 66.6428 353.746 64.0356C352.89 62.0141 351.198 60.1202 348.9 59.8887C347.997 59.799 347.993 58.3773 348.9 58.4718C349.071 58.4907 349.241 58.5143 349.411 58.5426C351.921 58.9961 353.854 60.8664 354.904 63.1713C356.265 66.1799 355.996 69.4294 355.301 72.5798C354.157 77.761 351.505 84.6238 356.246 88.8557C358.246 90.641 360.841 91.6282 362.997 93.2104C364.928 94.6211 366.659 96.2879 368.14 98.165C372.678 103.931 374.909 111.176 374.399 118.493Z" fill="#3F3D56"/>
<path d="M120.621 314.312H129.01L133.001 281.984H120.621V314.312Z" fill="#FFB6B6"/>
<path d="M116.193 328.834H122.209L123.283 323.159L126.033 328.834H141.988C142.753 328.834 143.498 328.59 144.114 328.137C144.73 327.684 145.185 327.047 145.413 326.317C145.64 325.587 145.629 324.804 145.379 324.082C145.13 323.36 144.656 322.736 144.026 322.302L131.285 313.509V307.772L117.883 308.572L116.193 328.834Z" fill="#2F2E41"/>
<path d="M55.5835 297.683L62.7991 301.958L82.7368 276.186L72.0884 269.876L55.5835 297.683Z" fill="#FFB6B6"/>
<path d="M44.3615 307.917L49.5357 310.983L53.3564 306.649L52.8248 312.932L66.5483 321.064C67.2061 321.453 67.9714 321.623 68.7324 321.548C69.4935 321.472 70.2105 321.155 70.7787 320.644C71.3469 320.132 71.7366 319.453 71.8909 318.704C72.0452 317.956 71.9559 317.178 71.6363 316.484L65.1657 302.428L68.0947 297.493L56.1595 291.35L44.3615 307.917Z" fill="#2F2E41"/>
<path d="M121.528 107.606L128.442 133.571L89.7151 134.081L94.8105 109.133L121.528 107.606Z" fill="#FFB6B6"/>
<path d="M128.591 133.243L136.815 160.046L140.457 231.723L131.019 300.16H120.573L116.293 232.839L105.766 186.775L111.929 234.953L79.6477 282.109H63.785L92.9485 230.144L75.9724 176.201C75.9724 176.201 77.6748 149.524 88.4411 135.354L91.0616 127.789L128.591 133.243Z" fill="#2F2E41"/>
<path d="M129.126 83.693C129.104 83.4596 129.071 83.2152 129.026 82.9819C128.189 77.3794 125.165 72.3365 120.615 68.9568C116.065 65.5771 110.361 64.136 104.75 64.9488C99.4811 65.7377 94.6809 68.4202 91.25 72.4931V72.5042C91.0721 72.7153 90.9053 72.9375 90.7385 73.1597C90.4382 73.5375 90.1602 73.9375 89.8933 74.3375C87.4828 77.9763 86.2413 82.2636 86.3348 86.6262C86.3348 86.6262 88.3587 97.3928 88.7813 100.248C89.0704 102.093 89.2929 103.904 89.4596 105.67C89.5598 106.559 89.6376 107.437 89.7043 108.293V108.304C90.0379 112.537 90.1491 116.337 90.2492 119.281C90.2937 120.881 91.4057 125.426 91.4724 125.481C91.541 125.533 91.6154 125.583 91.6941 125.631C92.2581 125.959 92.8942 126.143 93.5464 126.167C94.1985 126.191 94.8465 126.055 95.433 125.769L100.436 123.437C103.757 121.893 107.449 121.323 111.082 121.794C117.028 122.564 125.688 123.621 126.08 123.302C126.548 122.901 128.804 102.726 129.393 96.3817C129.471 95.4706 129.538 94.5262 129.571 93.515V93.5039C129.669 90.2271 129.52 86.9476 129.126 83.693Z" fill="#3F3D56"/>
<path d="M157.892 87.3202C157.668 87.9875 157.299 88.5975 156.813 89.1073C156.327 89.617 155.735 90.014 155.079 90.2705C154.423 90.5269 153.718 90.6364 153.015 90.5914C152.312 90.5463 151.627 90.3477 151.009 90.0097L138.314 101.497L136.958 92.7081L149.221 83.1468C149.859 82.147 150.841 81.4155 151.982 81.0909C153.123 80.7663 154.343 80.8711 155.412 81.3855C156.481 81.9 157.324 82.7883 157.781 83.882C158.238 84.9758 158.277 86.1992 157.892 87.3202Z" fill="#FFB8B8"/>
<path d="M110.641 65.043C110.641 65.043 123.135 67.3742 116.024 91.6066L118.77 103.618L131.652 96.2144L132.432 93.0848L143.711 85.1746L149.044 94.7801L142.559 100.971L140.687 104.835L137.36 105.934L127.056 115.772L122.735 118.41C122.735 118.41 117.242 121.811 112.355 119.968C111.05 119.481 109.831 118.791 108.74 117.925C106.607 116.225 104.715 113.628 103.529 109.701C99.1326 95.1326 97.4821 84.9452 97.4821 84.9452L110.641 65.043Z" fill="#3F3D56"/>
<path d="M157.066 99.1251L149.502 70.6949C149.461 70.5399 149.481 70.375 149.557 70.2342C149.634 70.0934 149.762 69.9874 149.915 69.9381C150.068 69.8888 150.234 69.8998 150.378 69.9691C150.523 70.0383 150.636 70.1604 150.693 70.3101L160.874 96.8814L157.066 99.1251Z" fill="#3F3D56"/>
<path d="M163.363 105.571C162.261 105.341 161.189 104.982 160.171 104.501C159.654 104.254 159.154 103.976 158.665 103.689C158.491 103.592 158.317 103.489 158.147 103.389C157.74 103.151 157.333 102.914 156.923 102.672C156.575 102.472 156.225 102.268 155.881 102.064C155.373 101.768 154.827 101.424 154.68 100.853C154.635 100.583 154.65 100.306 154.726 100.042C154.801 99.7786 154.934 99.535 155.114 99.329C155.487 98.8946 155.917 98.5134 156.393 98.1962C157.46 97.4126 158.529 96.6302 159.598 95.8491L159.885 95.2227C160.753 95.5892 161.551 96.1047 162.242 96.7458C162.515 97.023 162.729 97.3526 162.872 97.7146C163.014 98.0767 163.081 98.4638 163.07 98.8526C163.06 99.0245 163.032 99.1948 162.986 99.3607C162.779 100.087 162.238 100.705 161.917 101.401C161.852 101.547 161.796 101.697 161.749 101.849C161.605 102.298 161.562 102.773 161.624 103.24C161.685 103.707 161.848 104.155 162.103 104.551C162.42 105.002 162.856 105.355 163.363 105.571Z" fill="#CCCCCC"/>
<path d="M164.945 105.834C164.404 105.873 163.862 105.783 163.363 105.571C163.886 105.685 164.413 105.773 164.945 105.834Z" fill="#E6E6E6"/>
<path d="M163.363 105.571C162.261 105.341 161.189 104.982 160.171 104.501C159.654 104.254 159.154 103.976 158.665 103.689C158.491 103.592 158.317 103.489 158.147 103.389C157.74 103.151 157.333 102.914 156.923 102.672C157.066 102.48 157.22 102.295 157.382 102.119C158.897 100.472 160.967 99.5427 163.07 98.8525C163.06 99.0244 163.032 99.1947 162.986 99.3606C162.779 100.087 162.238 100.705 161.917 101.401C161.852 101.547 161.796 101.697 161.749 101.849C161.605 102.298 161.562 102.773 161.624 103.24C161.685 103.707 161.848 104.155 162.103 104.551C162.42 105.002 162.856 105.355 163.363 105.571Z" fill="#00B7A4"/>
<path d="M119.385 52.9223C123.723 44.9941 120.807 35.0536 112.872 30.7196C104.937 26.3857 94.9877 29.2994 90.65 37.2277C86.3123 45.1559 89.2286 55.0964 97.1636 59.4303C105.099 63.7643 115.048 60.8506 119.385 52.9223Z" fill="#FFB6B6"/>
<path d="M95.031 31.7264V31.7379C95.0326 32.4497 94.9417 33.1587 94.7607 33.8471C94.7319 33.9678 94.6974 34.0942 94.6571 34.2149V34.2207C94.2712 35.45 93.6056 36.5733 92.7125 37.5026C91.8193 38.4319 90.7229 39.1419 89.5091 39.5769C89.3308 39.6459 89.1468 39.7033 88.9627 39.7551C88.5749 39.8674 88.1786 39.9481 87.7778 39.9964C87.4177 40.0474 87.0543 40.0724 86.6906 40.0711C86.4064 40.0723 86.1222 40.0589 85.8393 40.0309C85.1774 39.964 84.5263 39.8153 83.9009 39.5884C83.803 39.5599 83.7069 39.5254 83.6133 39.4849C83.5663 39.4683 83.5202 39.4491 83.4753 39.4275C82.4318 38.9911 81.4879 38.3473 80.7011 37.5353C79.9142 36.7233 79.3007 35.76 78.8977 34.7039C78.4948 33.6478 78.311 32.5209 78.3572 31.3916C78.4035 30.2623 78.679 29.1542 79.167 28.1345L79.1728 28.1287C79.5817 27.2733 80.1364 26.4954 80.8121 25.8299C82.3191 24.3299 82.9832 20.5708 85.2725 20.5708C85.3819 20.5689 85.4913 20.5727 85.6003 20.5823C87.1361 20.634 89.975 23.9449 91.1829 24.7265C92.08 25.2927 92.8577 26.0288 93.4722 26.8931C94.1139 27.7823 94.5715 28.7905 94.8182 29.8586C94.9593 30.4712 95.0307 31.0978 95.031 31.7264Z" fill="#2F2E41"/>
<path d="M84.8406 28.8245C83.5453 30.3311 81.5174 30.9168 79.6879 31.7008C76.4593 33.1161 73.6248 35.2968 71.4304 38.054C69.2359 40.8112 67.7477 44.0616 67.0948 47.5233C66.589 50.343 66.6551 53.2619 65.8562 56.0108C65.0621 58.7597 63.0956 61.4566 60.2735 61.9336C58.3637 62.2595 56.4492 61.5227 54.6528 60.7953C53.6649 60.3986 52.6769 60.0003 51.6889 59.6004C52.7194 57.0168 53.7484 54.4333 54.7758 51.8497C53.1246 54.2879 51.2043 56.5329 49.0511 58.5424C45.5105 57.116 41.9667 55.6896 38.4197 54.2632C47.1461 54.2963 45.657 45.8324 47.6094 37.3403C48.6824 32.6738 57.8201 29.514 59.6117 25.0743C60.5798 22.6662 62.2181 20.5856 64.3327 19.0788C66.4473 17.572 68.9497 16.702 71.5438 16.5718C74.1378 16.4416 76.7149 17.0567 78.97 18.3442C81.2251 19.6317 83.0638 21.5378 84.2686 23.8368C86.0602 24.55 86.1122 27.3367 84.8406 28.8245Z" fill="#2F2E41"/>
<path d="M119.839 28.7085C118.241 26.6064 114.216 26.5246 113.409 29.0378L111.712 26.738C109.51 21.9307 103.7 22.9088 98.4465 23.543C93.1933 24.1771 88.5642 27.8758 86.2141 32.6126C83.864 37.3494 83.6509 42.975 85.0044 48.086C85.915 51.5248 87.5872 54.8801 90.3615 57.1093C93.1358 59.3385 106.178 64.6107 107.264 60.071C105.906 65.9935 108.637 65.0664 112.679 69.606C114.772 63.3228 115.753 51.4842 117.847 45.201C118.162 44.2552 118.477 43.3094 118.792 42.3636C119.456 40.37 120.122 38.373 120.601 36.3273C121.204 33.7575 121.436 30.8106 119.839 28.7085Z" fill="#2F2E41"/>
<path d="M109.075 46.7452L108.376 42.2932C108.851 36.7561 108.075 27.9487 111.712 26.7378L113.936 28.96C112.529 29.4287 109.853 37.7088 109.075 46.7452Z" fill="#FF6584"/>
<path d="M114.263 23.1708C114.263 26.5619 113.098 29.3109 111.663 29.3109C110.227 29.3109 109.063 26.5619 109.063 23.1708C109.063 19.7798 111.663 17.0308 111.663 17.0308C111.663 17.0308 114.263 19.7797 114.263 23.1708Z" fill="#FF6584"/>
<path d="M116.407 24.6874C115.043 27.7926 112.872 29.8426 111.557 29.2661C110.242 28.6897 110.282 25.705 111.645 22.5997C113.009 19.4945 116.495 18.021 116.495 18.021C116.495 18.021 117.771 21.5821 116.407 24.6874Z" fill="#FF6584"/>
</g>
<defs>
<clipPath id="clip0_67_1349">
<rect width="420" height="329" fill="white" transform="translate(0 0.5)"/>
</clipPath>
</defs>
</svg>
