<svg width="780" height="258" viewBox="0 0 780 258" fill="none" xmlns="http://www.w3.org/2000/svg">
<path d="M359.531 6.46094V8.82812C359.52 11.6992 359.52 14.6406 358.758 19.0703L356.109 18.8125C356.918 14.6758 356.918 11.6055 356.906 8.82812V8.57031H344.695V6.46094H359.531ZM361.992 20.5234V22.7031H342.68V20.5234H361.992ZM381.164 4.42188V15.9062H378.516V10.3281H374.93V8.21875H378.516V4.42188H381.164ZM381.539 16.9844V18.9531H366.562V16.9844H372.75V15.2734H375.375V16.9844H381.539ZM374.062 19.6562C377.918 19.6562 380.109 20.6758 380.109 22.6094C380.109 24.543 377.906 25.5742 374.062 25.5625C370.219 25.5742 368.004 24.543 368.016 22.6094C368.004 20.6758 370.207 19.6562 374.062 19.6562ZM374.062 21.4844C371.73 21.4844 370.547 21.8359 370.547 22.6094C370.547 23.3945 371.707 23.7578 374.062 23.7578C376.406 23.7578 377.555 23.3945 377.555 22.6094C377.555 21.8359 376.383 21.4844 374.062 21.4844ZM373.781 5.3125V10.9141H366.867V12.7656C370.219 12.7539 372.621 12.6367 375.328 12.1797L375.562 14.1953C372.527 14.6992 369.891 14.793 365.93 14.7812H364.242V9.0625H371.18V7.30469H364.219V5.3125H373.781ZM400.758 4.39844V12.4141H404.016V14.5938H400.758V25.6094H398.109V4.39844H400.758ZM394.945 6.39062V8.52344H387.633V18.25C390.961 18.2266 393.551 18.0625 396.445 17.5703L396.727 19.75C393.469 20.3359 390.656 20.4531 386.766 20.4531H385.008V6.39062H394.945ZM415.758 6.15625V7.86719H420V4.42188H422.648V19.8438H420V14.5469H415.758V16.3516H405.82V6.15625H415.758ZM408.398 8.24219V14.2656H413.203V8.24219H408.398ZM423.117 23.0312V25.1641H408.656V18.4141H411.305V23.0312H423.117ZM415.758 12.4141H420V10H415.758V12.4141ZM429.984 17.8984C429.996 13.0234 433.945 13.6328 433.945 11.0312C433.945 9.70703 432.926 8.86328 431.461 8.85156C429.855 8.86328 428.883 9.87109 428.883 11.5234H425.906C425.918 8.28906 428.262 6.20312 431.578 6.20312C434.637 6.20312 437.039 7.94922 437.039 10.9141C437.039 14.7695 432.961 14.2773 432.961 17.8047V18.2266H429.984V17.8984ZM431.484 23.7344C430.371 23.7344 429.574 22.9609 429.586 21.9062C429.574 20.8516 430.371 20.0781 431.484 20.0781C432.574 20.0781 433.371 20.8516 433.383 21.9062C433.371 22.9609 432.574 23.7344 431.484 23.7344Z" fill="#4DCDBF"/>
<path d="M264.779 76.0723V90.5508H270.275V94.3652H264.779V113.068H260.145V76.0723H264.779ZM254.936 79.9277C254.956 90.8379 250.465 100.354 238.16 106.465L235.576 102.979C244.436 98.4873 249.357 92.2529 250.26 83.7012H237.504V79.9277H254.936ZM285.328 82.7168C285.349 87.2285 288.261 91.4941 294.064 93.2988L291.85 96.9082C287.687 95.6162 284.754 92.9912 283.113 89.6484C281.493 93.5244 278.396 96.6211 273.926 98.0977L271.629 94.4883C277.617 92.458 280.693 87.6592 280.693 82.7168V82.3887H272.9V78.6562H292.998V82.3887H285.328V82.7168ZM301.242 76.1133V84.9316H306.451V88.7051H301.242V98.1797H296.648V76.1133H301.242ZM289.184 98.959C296.874 98.9795 301.673 101.584 301.652 106.014C301.673 110.464 296.895 113.109 289.184 113.109C281.473 113.109 276.653 110.464 276.674 106.014C276.653 101.584 281.473 98.9795 289.184 98.959ZM289.184 102.609C284.118 102.589 281.227 103.737 281.227 106.014C281.227 108.311 284.098 109.521 289.184 109.5C294.27 109.521 297.12 108.311 297.141 106.014C297.12 103.737 294.229 102.589 289.184 102.609ZM333.193 79.6816C333.193 83.6602 336.167 87.249 342.094 88.582L340.084 92.1914C335.675 91.125 332.537 88.8281 330.855 85.7109C329.174 89.1357 325.975 91.7402 321.422 92.9707L319.289 89.3203C325.257 87.8643 328.415 83.9268 328.436 79.6816V77.6309H333.193V79.6816ZM349.641 76.1133V113.109H345.047V76.1133H349.641ZM318.633 95.5547C325.523 95.5547 334.711 95.4932 342.709 94.3652L343.037 97.6875C339.817 98.2822 336.495 98.6719 333.234 98.918V112.002H328.641V99.1641C325.277 99.3076 322.078 99.3281 319.207 99.3281L318.633 95.5547ZM388.77 94.3652V98.0566H374.455V104.824H369.779V98.0566H354.891V94.3652H388.77ZM385.037 108.68V112.412H358.992V101.42H363.627V108.68H385.037ZM371.789 76.8516C379.787 76.8516 385.099 79.8047 385.119 84.4395C385.099 89.1357 379.787 92.0479 371.789 92.0273C363.812 92.0479 358.5 89.1357 358.5 84.4395C358.5 79.8047 363.812 76.8516 371.789 76.8516ZM371.789 80.543C366.724 80.543 363.422 81.917 363.422 84.4395C363.422 86.9414 366.724 88.3564 371.789 88.3359C376.875 88.3564 380.156 86.9414 380.156 84.4395C380.156 81.917 376.875 80.543 371.789 80.543ZM418.67 98.918C426.36 98.918 431.159 101.584 431.139 106.014C431.159 110.505 426.381 113.15 418.67 113.15C410.959 113.15 406.14 110.505 406.16 106.014C406.14 101.584 410.959 98.918 418.67 98.918ZM418.67 102.568C413.604 102.589 410.713 103.737 410.713 106.014C410.713 108.331 413.584 109.521 418.67 109.541C423.756 109.521 426.606 108.331 426.627 106.014C426.606 103.737 423.715 102.589 418.67 102.568ZM430.729 76.1133V84.9316H435.938V88.7461H430.729V98.0566H426.135V76.1133H430.729ZM407.309 78.4102V83.373H415.922V78.4102H420.475V95.7188H402.756V78.4102H407.309ZM407.309 92.0684H415.922V86.9414H407.309V92.0684ZM444.059 78V83.0449H452.303V78H456.855V84.7676H464.238V76.1133H468.873V96.375H464.238V88.5H456.855V95.1445H439.465V78H444.059ZM444.059 91.4531H452.303V86.5723H444.059V91.4531ZM448.98 97.9746V101.707H464.279V97.9746H468.873V112.617H444.387V97.9746H448.98ZM448.98 108.926H464.279V105.316H448.98V108.926ZM490.98 78.123C498.794 78.123 504.803 82.3271 504.803 88.6641C504.803 95.001 498.814 99.1846 490.98 99.1641C483.167 99.1846 477.158 95.001 477.158 88.6641C477.158 82.3271 483.188 78.123 490.98 78.123ZM490.98 81.8965C485.607 81.876 481.67 84.501 481.67 88.6641C481.67 92.7861 485.587 95.3906 490.98 95.3906C496.395 95.3906 500.312 92.7861 500.332 88.6641C500.312 84.501 496.395 81.876 490.98 81.8965ZM507.961 104.701V108.516H474.123V104.701H507.961ZM544.26 105.07V108.844H510.422V105.07H524.982V99.041H514.441V86.9004H535.729V82.3066H514.359V78.6152H540.322V90.5508H518.994V95.3496H541.184V99.041H529.576V105.07H544.26ZM263.61 129.682V133.824C263.59 138.849 263.59 143.996 262.257 151.748L257.622 151.297C259.037 144.058 259.037 138.685 259.017 133.824V133.373H237.647V129.682H263.61ZM267.917 154.291V158.105H234.12V154.291H267.917ZM301.304 126.113V148.057H296.669V126.113H301.304ZM289.368 128.246V139.033H276.858V142.889C283.318 142.868 287.769 142.663 293.019 141.822L293.552 145.514C287.769 146.478 282.642 146.642 275.505 146.621H272.347V135.547H284.815V131.938H272.265V128.246H289.368ZM301.304 149.861V162.699H276.694V149.861H301.304ZM281.247 153.471V159.008H296.751V153.471H281.247ZM323.575 126.646C332.004 126.646 336.967 128.902 336.946 133.004C336.967 137.105 332.004 139.382 323.575 139.361C315.167 139.382 310.184 137.105 310.204 133.004C310.184 128.902 315.167 126.646 323.575 126.646ZM323.575 130.051C317.895 130.071 314.982 131.076 314.962 133.004C314.982 134.993 317.895 135.957 323.575 135.957C329.256 135.957 332.188 134.993 332.188 133.004C332.188 131.076 329.256 130.071 323.575 130.051ZM340.474 141.371V145.021H306.677V141.371H340.474ZM336.29 147.523V156.588H315.249V159.295H337.315V162.822H310.696V153.348H331.737V150.969H310.614V147.523H336.29ZM382.802 129.682V133.824C382.781 138.849 382.781 143.996 381.448 151.748L376.813 151.297C378.229 144.058 378.229 138.685 378.208 133.824V133.373H356.839V129.682H382.802ZM387.108 154.291V158.105H353.312V154.291H387.108ZM420.659 126.072V163.191H416.065V147.975H409.298V144.242H416.065V137.885H409.421V134.152H416.065V126.072H420.659ZM407.411 129.271V143.217H395.476V151.01C400.356 150.969 404.622 150.764 409.585 150.025L409.995 153.799C404.335 154.66 399.618 154.824 393.794 154.824H390.923V139.525H402.858V133.004H390.841V129.271H407.411ZM459.747 154.906V158.68H425.909V154.906H440.47V147.688H429.642V128.533H434.194V134.562H451.339V128.533H455.933V147.688H445.063V154.906H459.747ZM434.194 143.996H451.339V138.213H434.194V143.996ZM473.774 135.711C473.774 141.72 475.825 147.954 480.87 151.092L478.327 154.701C475.025 152.691 472.852 149.246 471.642 145.186C470.247 149.841 467.786 153.471 464.382 155.521L461.593 152.035C466.945 148.856 469.324 142.253 469.345 135.957V129.395H473.774V135.711ZM494.159 126.072V163.109H489.771V126.072H494.159ZM486.489 126.729V161.387H482.142V142.602H476.933V138.828H482.142V126.729H486.489ZM532.345 154.865V158.68H498.507V154.865H506.259V145.473C503.326 143.791 501.542 141.146 501.542 137.885C501.542 131.938 507.387 128.103 515.364 128.082C523.383 128.103 529.187 131.938 529.187 137.885C529.187 141.146 527.423 143.771 524.511 145.473V154.865H532.345ZM515.364 131.691C509.868 131.712 506.074 134.029 506.054 137.885C506.074 141.72 509.868 144.058 515.364 144.078C520.881 144.058 524.675 141.72 524.675 137.885C524.675 134.029 520.881 131.712 515.364 131.691ZM510.853 154.865H519.917V147.195C518.502 147.503 516.984 147.646 515.364 147.646C513.765 147.646 512.247 147.503 510.853 147.195V154.865ZM543.009 149.697H537.677V129.805H543.009V149.697ZM540.343 159.91C538.415 159.91 537.021 158.557 537.021 156.711C537.021 154.865 538.415 153.512 540.343 153.512C542.25 153.512 543.665 154.865 543.665 156.711C543.665 158.557 542.25 159.91 540.343 159.91Z" fill="white"/>
<path d="M16.4062 212.66V230.141H14.6289V221.195H12.3828V229.262H10.6445V213.031H12.3828V219.672H14.6289V212.66H16.4062ZM4.10156 214.711V224.066C5.69336 224.057 7.48047 223.93 9.45312 223.539L9.64844 225.16C7.26562 225.609 5.23438 225.697 3.37891 225.707H2.22656V214.711H4.10156ZM32.3438 212.66V219.633H35.0586V221.176H32.3438V230.141H30.4688V212.66H32.3438ZM27.7539 214.516C27.7441 219.555 25.5273 224.057 19.7656 226.918L18.7305 225.492C23.0566 223.314 25.4688 220.17 25.8594 216.039H19.5898V214.516H27.7539ZM54.8242 214.438V216.293C54.8145 218.588 54.8145 221.049 54.1602 224.77L52.2852 224.594C52.9785 221.088 52.9785 218.51 52.9688 216.293V215.961H42.6562V214.438H54.8242ZM56.9141 226.137V227.68H40.957V226.137H56.9141ZM72.7539 212.68V225.551H70.8789V212.68H72.7539ZM73.2227 228.266V229.789H61.1523V224.535H63.0273V228.266H73.2227ZM67.1484 213.871V219.105H60.9766V221.625C64.2383 221.605 66.4062 221.518 68.9648 221.059L69.1602 222.562C66.4648 223.041 64.1992 223.139 60.6055 223.148H59.1406V217.68H65.3125V215.395H59.1016V213.871H67.1484ZM95.0195 212.66V230.141H93.1641V212.66H95.0195ZM89.8047 214.516C89.8145 219.652 87.6465 224.086 81.6406 226.977L80.6445 225.492C85.3125 223.275 87.5586 220.111 87.9297 216.02H81.5039V214.516H89.8047ZM112.285 212.68V225.551H110.41V212.68H112.285ZM112.754 228.266V229.789H100.684V224.535H102.559V228.266H112.754ZM106.68 213.871V219.105H100.508V221.625C103.77 221.605 105.938 221.518 108.496 221.059L108.691 222.562C105.996 223.041 103.73 223.139 100.137 223.148H98.6719V217.68H104.844V215.395H98.6328V213.871H106.68ZM133.887 214.438V216.293C133.877 218.588 133.877 221.049 133.223 224.77L131.348 224.594C132.041 221.088 132.041 218.51 132.031 216.293V215.961H121.719V214.438H133.887ZM135.977 226.137V227.68H120.02V226.137H135.977ZM151.816 212.68V223.031H149.941V212.68H151.816ZM146.211 213.695V218.617H140.039V220.746C143.164 220.736 145.361 220.648 147.988 220.219L148.223 221.723C145.391 222.191 142.949 222.279 139.668 222.289H138.203V217.191H144.375V215.199H138.164V213.695H146.211ZM151.816 223.949V229.926H140.332V223.949H151.816ZM142.168 225.414V228.441H149.98V225.414H142.168ZM169.629 212.66V230.141H167.832V212.66H169.629ZM166.074 212.992V229.301H164.316V220.883H162.324C162.168 224.311 160.723 226.391 158.535 226.391C156.26 226.391 154.775 224.037 154.785 220.219C154.775 216.43 156.26 214.047 158.535 214.047C160.674 214.047 162.1 216.068 162.324 219.34H164.316V212.992H166.074ZM158.535 215.805C157.285 215.805 156.484 217.426 156.484 220.219C156.484 223.002 157.285 224.643 158.535 224.652C159.834 224.643 160.625 223.002 160.625 220.219C160.625 217.426 159.834 215.805 158.535 215.805ZM178.184 217.074C178.174 220.287 179.971 223.48 182.617 224.711L181.504 226.215C179.521 225.209 178.018 223.227 177.266 220.824C176.484 223.354 174.951 225.473 172.949 226.508L171.777 225.023C174.424 223.734 176.299 220.414 176.309 217.074V214.105H178.184V217.074ZM186.465 212.66V230.18H184.609V219.984H180.703V218.461H184.609V212.66H186.465ZM203.32 217.758V219.262H191.25V213.305H193.105V217.758H203.32ZM205.137 221.449V222.973H189.141V221.449H205.137ZM203.418 228.227V229.73H191.133V224.594H192.988V228.227H203.418ZM218.105 214.418C218.115 216.371 219.707 218.061 222.402 218.695L221.582 220.16C219.512 219.643 217.969 218.52 217.188 216.996C216.387 218.676 214.824 219.955 212.676 220.551L211.797 219.066C214.512 218.383 216.191 216.527 216.191 214.418V213.402H218.105V214.418ZM225.957 212.68V230.16H224.102V212.68H225.957ZM211.387 221.938C214.697 221.947 219.082 221.918 222.91 221.371L223.027 222.738C221.436 223.021 219.795 223.207 218.184 223.305V229.613H216.309V223.422C214.639 223.49 213.047 223.5 211.621 223.5L211.387 221.938ZM244.668 221.43V222.934H237.754V226.312H235.859V222.934H228.672V221.43H244.668ZM242.91 228.266V229.789H230.664V224.633H232.539V228.266H242.91ZM236.641 213.051C240.41 213.061 242.891 214.428 242.891 216.605C242.891 218.803 240.41 220.16 236.641 220.16C232.91 220.16 230.43 218.803 230.43 216.605C230.43 214.428 232.91 213.061 236.641 213.051ZM236.641 214.574C234.111 214.564 232.412 215.326 232.422 216.605C232.412 217.895 234.111 218.646 236.641 218.656C239.219 218.646 240.898 217.895 240.898 216.605C240.898 215.326 239.219 214.564 236.641 214.574ZM265.117 220.727V222.25H259.824V226.469H266.934V228.031H250.938V226.469H257.969V222.25H252.91V213.988H264.941V215.531H254.766V220.727H265.117ZM282.129 213.754V215.277C282.129 216.938 282.129 218.754 281.66 221.254H284.18V222.777H277.09V230.16H275.215V222.777H268.223V221.254H279.785C280.303 218.773 280.303 216.918 280.293 215.277V215.258H270.176V213.754H282.129ZM301.504 226.527V228.051H285.508V226.527H292.539V223.441H287.461V217.875H297.715V215.414H287.422V213.91H299.57V219.359H289.297V221.938H299.98V223.441H294.395V226.527H301.504ZM321.934 218.402V219.926H309.785V213.5H311.66V218.402H321.934ZM323.75 222.348V223.891H316.602V230.16H314.746V223.891H307.754V222.348H323.75ZM338.945 213.754V215.277C338.945 216.938 338.945 218.754 338.477 221.254H340.996V222.777H333.906V230.16H332.031V222.777H325.039V221.254H336.602C337.119 218.773 337.119 216.918 337.109 215.277V215.258H326.992V213.754H338.945ZM358.672 219.516V221.078H355.957V230.141H354.082V212.66H355.957V219.516H358.672ZM344.824 214.359V224.203C347.305 224.174 349.834 223.988 352.578 223.422L352.793 224.984C349.805 225.59 347.021 225.756 344.395 225.746H342.969V214.359H344.824ZM370.645 217.816C370.645 220.561 372.49 223.656 375.137 224.906L374.082 226.391C372.1 225.434 370.547 223.451 369.766 221.156C368.965 223.646 367.344 225.824 365.332 226.82L364.258 225.336C366.885 224.066 368.809 220.756 368.809 217.816V215.961H364.883V214.418H374.453V215.961H370.645V217.816ZM378.203 212.66V219.613H380.996V221.176H378.203V230.16H376.328V212.66H378.203ZM396.387 212.66V230.141H394.531V212.66H396.387ZM391.172 214.516C391.182 219.652 389.014 224.086 383.008 226.977L382.012 225.492C386.68 223.275 388.926 220.111 389.297 216.02H382.871V214.516H391.172ZM408.789 213.969C411.406 213.969 413.291 216.361 413.281 220.102C413.291 223.852 411.406 226.254 408.789 226.254C406.182 226.254 404.307 223.852 404.297 220.102C404.307 216.361 406.182 213.969 408.789 213.969ZM408.789 215.648C407.188 215.648 406.094 217.357 406.094 220.102C406.094 222.875 407.188 224.584 408.789 224.574C410.4 224.584 411.494 222.875 411.504 220.102C411.494 217.357 410.4 215.648 408.789 215.648ZM417.734 212.66V219.535H420.527V221.098H417.734V230.16H415.859V212.66H417.734ZM435.879 212.66V230.18H434.004V212.66H435.879ZM426.504 213.969C429.141 213.969 431.035 216.361 431.035 220.102C431.035 223.852 429.141 226.254 426.504 226.254C423.887 226.254 421.982 223.852 421.992 220.102C421.982 216.361 423.887 213.969 426.504 213.969ZM426.504 215.648C424.893 215.648 423.779 217.357 423.789 220.102C423.779 222.875 424.893 224.584 426.504 224.574C428.125 224.584 429.238 222.875 429.238 220.102C429.238 217.357 428.125 215.648 426.504 215.648ZM453.164 212.66V230.18H451.289V212.66H453.164ZM448.164 214.281V215.824H441.641V224.32C444.99 224.311 447.109 224.203 449.57 223.754L449.746 225.316C447.119 225.795 444.834 225.893 441.23 225.902H439.785V214.281H448.164ZM460.684 213.969C463.076 213.969 464.824 215.99 465.098 219.223H468.691V212.66H470.547V230.18H468.691V220.727H465.098C464.912 224.115 463.135 226.254 460.684 226.254C458.105 226.254 456.26 223.852 456.25 220.102C456.26 216.361 458.105 213.969 460.684 213.969ZM460.684 215.648C459.111 215.648 458.027 217.357 458.027 220.102C458.027 222.875 459.111 224.584 460.684 224.574C462.275 224.584 463.359 222.875 463.359 220.102C463.359 217.357 462.275 215.648 460.684 215.648ZM489.59 219.516V221.078H486.875V230.141H485V212.66H486.875V219.516H489.59ZM475.742 214.359V224.203C478.223 224.174 480.752 223.988 483.496 223.422L483.711 224.984C480.723 225.59 477.939 225.756 475.312 225.746H473.887V214.359H475.742ZM509.219 212.66V216.781H511.758V218.324H509.219V222.523H507.363V212.66H509.219ZM504.414 213.754C504.414 218.236 501.357 221.4 496.152 222.797L495.41 221.293C499.6 220.189 502.061 218.002 502.383 215.258H496.211V213.754H504.414ZM509.219 223.305V229.926H498.027V223.305H509.219ZM499.883 224.809V228.422H507.383V224.809H499.883ZM527.363 212.66V223.07H525.469V218.637H522.227V217.094H525.469V212.66H527.363ZM521.504 223.559C525.156 223.559 527.422 224.789 527.422 226.859C527.422 228.939 525.156 230.15 521.504 230.141C517.832 230.15 515.566 228.939 515.566 226.859C515.566 224.789 517.832 223.559 521.504 223.559ZM521.504 225.004C518.926 225.004 517.422 225.678 517.422 226.859C517.422 228.031 518.926 228.705 521.504 228.715C524.072 228.705 525.576 228.031 525.566 226.859C525.576 225.678 524.062 225.004 521.504 225.004ZM519.023 215.746C519.033 217.934 520.615 220.111 523.242 221.02L522.305 222.484C520.342 221.801 518.896 220.404 518.145 218.676C517.373 220.639 515.83 222.201 513.75 222.953L512.793 221.469C515.488 220.521 517.158 218.178 517.148 215.746V215.395H513.34V213.871H522.773V215.395H519.023V215.746ZM538.008 212.934C541.953 212.943 544.277 214.018 544.277 215.961C544.277 217.904 541.953 218.988 538.008 218.988C534.092 218.988 531.758 217.904 531.758 215.961C531.758 214.018 534.092 212.943 538.008 212.934ZM538.008 214.34C535.225 214.34 533.691 214.916 533.691 215.961C533.691 217.016 535.225 217.592 538.008 217.582C540.82 217.592 542.354 217.016 542.344 215.961C542.354 214.916 540.82 214.34 538.008 214.34ZM545.996 220.043V221.547H530.039V220.043H545.996ZM543.984 222.895V226.996H533.828V228.539H544.492V229.984H531.992V225.648H542.148V224.301H531.934V222.895H543.984ZM558.711 217.074C558.721 220.316 560.645 223.51 563.34 224.711L562.246 226.234C560.215 225.258 558.633 223.275 557.812 220.863C557.002 223.432 555.391 225.541 553.301 226.566L552.168 225.043C554.912 223.773 556.846 220.414 556.855 217.074V214.125H558.711V217.074ZM566.797 212.66V230.18H564.922V212.66H566.797ZM583.32 212.66V216.977H585.859V218.539H583.32V222.875H581.465V212.66H583.32ZM578.496 213.754C578.486 218.236 575.439 221.381 570.254 222.758L569.492 221.293C573.691 220.189 576.172 217.992 576.484 215.238H570.312V213.754H578.496ZM583.32 223.676V230.16H581.465V225.18H571.777V223.676H583.32ZM593.125 215.746C593.135 217.943 594.717 220.121 597.344 221.02L596.406 222.484C594.434 221.801 592.988 220.395 592.227 218.656C591.475 220.57 589.951 222.123 587.832 222.875L586.875 221.391C589.58 220.463 591.26 218.148 591.25 215.746V215.297H587.441V213.793H596.875V215.297H593.125V215.746ZM601.465 224.008V230.16H599.57V225.531H589.609V224.008H601.465ZM601.465 212.66V223.109H599.57V218.656H596.348V217.094H599.57V212.66H601.465ZM612.109 213.695C615.801 213.705 618.594 215.658 618.594 218.598C618.594 221.547 615.811 223.49 612.109 223.5C608.457 223.49 605.654 221.547 605.664 218.598C605.654 215.658 608.457 213.705 612.109 213.695ZM612.109 215.238C609.453 215.229 607.471 216.557 607.48 218.598C607.471 220.629 609.443 221.967 612.109 221.957C614.814 221.967 616.787 220.629 616.777 218.598C616.787 216.557 614.814 215.229 612.109 215.238ZM620.156 226.352V227.895H604.16V226.352H620.156ZM637.441 226.527V228.051H621.445V226.527H628.477V223.441H623.398V217.875H633.652V215.414H623.359V213.91H635.508V219.359H625.234V221.938H635.918V223.441H630.332V226.527H637.441ZM659.688 226.566V228.09H643.691V226.566H647.969V222.66H645.098V221.176H647.695V215.727H645.039V214.203H658.242V215.727H655.586V221.176H658.203V222.66H655.293V226.566H659.688ZM649.551 221.176H653.73V215.727H649.551V221.176ZM649.844 226.566H653.457V222.66H649.844V226.566ZM675.566 212.68V226.02H673.672V222.426H670.879V220.922H673.672V218.734H670.879V217.23H673.672V212.68H675.566ZM670.84 214.711V216.195H660.996V214.711H665.078V212.641H666.934V214.711H670.84ZM665.996 217.074C668.359 217.074 670.02 218.432 670.02 220.434C670.02 222.436 668.359 223.812 665.996 223.812C663.623 223.812 661.953 222.436 661.953 220.434C661.953 218.432 663.623 217.074 665.996 217.074ZM665.996 218.52C664.648 218.51 663.721 219.271 663.711 220.434C663.721 221.596 664.648 222.348 665.996 222.348C667.334 222.348 668.262 221.596 668.262 220.434C668.262 219.271 667.324 218.51 665.996 218.52ZM675.957 228.266V229.789H664.121V224.867H665.977V228.266H675.957ZM691.992 212.621V216.684H694.551V218.227H691.992V222.211H690.137V212.621H691.992ZM691.992 223.051V227.113H682.559V228.559H692.617V229.984H680.723V225.785H690.176V224.438H680.664V223.051H691.992ZM688.691 214.145V215.59H678.301V214.145H682.559V212.484H684.434V214.145H688.691ZM683.496 216.254C686.055 216.264 687.754 217.367 687.754 219.125C687.754 220.893 686.064 221.986 683.496 221.996C680.918 221.986 679.238 220.893 679.238 219.125C679.238 217.367 680.918 216.264 683.496 216.254ZM683.496 217.621C681.992 217.621 681.006 218.178 681.016 219.125C681.006 220.072 681.992 220.639 683.496 220.648C684.99 220.639 685.967 220.072 685.977 219.125C685.967 218.178 684.99 217.621 683.496 217.621ZM709.473 214.184C709.473 216.488 712.314 218.686 715.723 219.184L714.98 220.688C712.139 220.219 709.639 218.725 708.516 216.664C707.373 218.734 704.873 220.219 702.012 220.688L701.25 219.184C704.697 218.686 707.51 216.537 707.52 214.184V213.246H709.473V214.184ZM716.465 222.406V223.949H709.355V230.16H707.52V223.949H700.508V222.406H716.465ZM728.828 224.203C728.828 225.707 729.58 227.309 731.152 228.246C732.754 227.221 733.535 225.551 733.535 224.203V223.383H735.352V224.203C735.352 226.02 736.562 227.787 738.828 228.539L737.91 229.906C736.191 229.301 735.029 228.139 734.414 226.703C733.857 228.109 732.803 229.398 731.191 230.062C729.521 229.428 728.467 228.197 727.93 226.762C727.285 228.139 726.123 229.291 724.473 229.906L723.555 228.539C725.791 227.729 727.031 225.902 727.031 224.203V223.383H728.828V224.203ZM737.266 212.68V222.641H735.391V212.68H737.266ZM727.773 213.637C730.459 213.637 732.432 215.336 732.422 217.777C732.432 220.18 730.459 221.869 727.773 221.879C725.078 221.869 723.096 220.18 723.105 217.777C723.096 215.336 725.078 213.637 727.773 213.637ZM727.773 215.199C726.123 215.199 724.922 216.225 724.922 217.777C724.922 219.291 726.123 220.316 727.773 220.316C729.414 220.316 730.605 219.291 730.605 217.777C730.605 216.225 729.414 215.199 727.773 215.199ZM744.766 213.969C747.158 213.969 748.906 215.99 749.18 219.223H752.773V212.66H754.629V230.18H752.773V220.727H749.18C748.994 224.115 747.217 226.254 744.766 226.254C742.188 226.254 740.342 223.852 740.332 220.102C740.342 216.361 742.188 213.969 744.766 213.969ZM744.766 215.648C743.193 215.648 742.109 217.357 742.109 220.102C742.109 222.875 743.193 224.584 744.766 224.574C746.357 224.584 747.441 222.875 747.441 220.102C747.441 217.357 746.357 215.648 744.766 215.648ZM773.32 226.43V227.973H757.324V226.43H761.133V221.859C759.697 221.068 758.818 219.809 758.828 218.246C758.818 215.482 761.543 213.695 765.273 213.695C769.053 213.695 771.758 215.482 771.758 218.246C771.758 219.799 770.898 221.049 769.473 221.84V226.43H773.32ZM765.273 215.16C762.568 215.16 760.635 216.361 760.645 218.246C760.635 220.131 762.568 221.332 765.273 221.332C768.018 221.332 769.932 220.131 769.941 218.246C769.932 216.361 768.018 215.16 765.273 215.16ZM762.988 226.43H767.617V222.543C766.904 222.709 766.113 222.797 765.273 222.797C764.453 222.797 763.691 222.709 762.988 222.543V226.43ZM776.582 228.676C775.771 228.676 775.186 228.09 775.195 227.289C775.186 226.488 775.771 225.912 776.582 225.902C777.393 225.912 777.979 226.488 777.988 227.289C777.979 228.09 777.393 228.676 776.582 228.676ZM108.33 236.66V243.418H111.123V244.98H108.33V254.18H106.455V236.66H108.33ZM103.623 238.32V239.844H97.2754V248.301C100.244 248.281 102.441 248.154 104.932 247.715L105.146 249.277C102.432 249.756 100.137 249.873 96.8457 249.863H95.4199V238.32H103.623ZM128.213 239.141V240.664H125.713V242.871H128.213V244.434H125.713V246.973H123.857V236.66H125.713V239.141H128.213ZM116.904 237.676C119.57 237.666 121.553 239.385 121.553 241.836C121.553 244.268 119.58 245.986 116.904 245.996C114.219 245.986 112.246 244.268 112.236 241.836C112.246 239.385 114.229 237.666 116.904 237.676ZM116.904 239.258C115.264 239.248 114.062 240.283 114.053 241.836C114.062 243.389 115.264 244.414 116.904 244.414C118.535 244.414 119.746 243.389 119.736 241.836C119.746 240.283 118.545 239.248 116.904 239.258ZM120.068 247.48C123.662 247.471 125.898 248.711 125.908 250.801C125.898 252.891 123.672 254.131 120.068 254.121C116.455 254.131 114.209 252.891 114.209 250.801C114.209 248.711 116.465 247.471 120.068 247.48ZM120.068 248.965C117.549 248.965 116.055 249.609 116.045 250.801C116.055 251.982 117.539 252.646 120.068 252.656C122.588 252.646 124.072 251.982 124.072 250.801C124.072 249.609 122.578 248.965 120.068 248.965ZM142.998 236.68V242.285H145.537V243.848H142.998V249.766H141.143V236.68H142.998ZM139.697 238.711V240.195H129.307V238.711H133.564V236.66H135.439V238.711H139.697ZM134.502 241.074C137.012 241.074 138.76 242.383 138.76 244.375C138.76 246.328 137.012 247.646 134.502 247.637C131.973 247.646 130.244 246.328 130.244 244.375C130.244 242.383 131.973 241.074 134.502 241.074ZM134.502 242.5C133.037 242.51 132.012 243.223 132.021 244.375C132.012 245.488 133.037 246.201 134.502 246.191C135.967 246.201 136.973 245.488 136.982 244.375C136.973 243.223 135.957 242.51 134.502 242.5ZM143.76 252.266V253.789H131.924V248.75H133.779V252.266H143.76ZM166.045 236.66V254.141H164.189V236.66H166.045ZM160.83 238.516C160.84 243.652 158.672 248.086 152.666 250.977L151.67 249.492C156.338 247.275 158.584 244.111 158.955 240.02H152.529V238.516H160.83ZM182.939 241.367V242.891H170.928V236.992H172.783V241.367H182.939ZM184.756 244.746V246.27H168.799V244.746H184.756ZM176.748 247.695C180.527 247.686 182.812 248.857 182.803 250.898C182.812 252.92 180.527 254.102 176.748 254.102C172.969 254.102 170.674 252.92 170.674 250.898C170.674 248.857 172.969 247.686 176.748 247.695ZM176.748 249.141C174.092 249.15 172.559 249.766 172.568 250.898C172.559 252.021 174.102 252.637 176.748 252.637C179.385 252.637 180.928 252.021 180.928 250.898C180.928 249.766 179.404 249.15 176.748 249.141ZM194.033 237.695C197.725 237.705 200.518 239.658 200.518 242.598C200.518 245.547 197.734 247.49 194.033 247.5C190.381 247.49 187.578 245.547 187.588 242.598C187.578 239.658 190.381 237.705 194.033 237.695ZM194.033 239.238C191.377 239.229 189.395 240.557 189.404 242.598C189.395 244.629 191.367 245.967 194.033 245.957C196.738 245.967 198.711 244.629 198.701 242.598C198.711 240.557 196.738 239.229 194.033 239.238ZM202.08 250.352V251.895H186.084V250.352H202.08ZM219.365 250.527V252.051H203.369V250.527H210.4V247.441H205.322V241.875H215.576V239.414H205.283V237.91H217.432V243.359H207.158V245.938H217.842V247.441H212.256V250.527H219.365ZM241.611 250.469V252.012H225.615V250.469H232.666V246.68H234.521V250.469H241.611ZM240.127 239.316V240.82H234.521C234.629 243.281 237.197 245.293 240.791 245.82L240.107 247.285C237.178 246.816 234.746 245.439 233.604 243.398C232.461 245.439 230.029 246.816 227.1 247.285L226.377 245.82C229.98 245.293 232.559 243.281 232.666 240.82H227.061V239.316H232.666V236.992H234.521V239.316H240.127ZM258.896 250.449V251.992H242.9V250.449H249.932V246.855H244.717V237.852H246.572V240.84H255.166V237.852H257.021V246.855H251.787V250.449H258.896ZM246.572 245.332H255.166V242.363H246.572V245.332ZM266.26 241.816C266.26 244.561 268.105 247.656 270.752 248.906L269.697 250.391C267.715 249.434 266.162 247.451 265.381 245.156C264.58 247.646 262.959 249.824 260.947 250.82L259.873 249.336C262.5 248.066 264.424 244.756 264.424 241.816V239.961H260.498V238.418H270.068V239.961H266.26V241.816ZM273.818 236.66V243.613H276.611V245.176H273.818V254.16H271.943V236.66H273.818ZM291.65 244.727V246.25H286.357V250.469H293.467V252.031H277.471V250.469H284.502V246.25H279.443V237.988H291.475V239.531H281.299V244.727H291.65ZM304.307 247.539V249.297H312.314V247.539H314.17V253.926H302.432V247.539H304.307ZM304.307 252.441H312.314V250.723H304.307V252.441ZM314.17 236.68V246.719H312.295V236.68H314.17ZM299.736 244.238C303.076 244.229 307.393 244.219 311.182 243.711L311.318 245.078C309.814 245.322 308.252 245.479 306.729 245.566V247.988H304.893V245.664C303.115 245.742 301.436 245.742 299.971 245.742L299.736 244.238ZM306.611 237.91C306.602 239.59 308.203 241.035 310.771 241.582L309.99 243.008C307.939 242.539 306.426 241.514 305.654 240.117C304.912 241.621 303.379 242.754 301.279 243.262L300.459 241.836C303.086 241.24 304.678 239.678 304.678 237.91V237.09H306.611V237.91ZM332.061 236.66V254.141H330.264V236.66H332.061ZM328.33 237.09V253.301H326.572V245.176H323.193C322.139 247.197 320.469 248.975 317.998 250.41L316.924 249.082C320.645 246.885 322.432 243.955 322.744 240.352H317.764V238.828H324.58C324.58 240.537 324.355 242.158 323.838 243.672H326.572V237.09H328.33ZM353.838 236.68V249.551H351.943V245.039H347.646C346.807 246.016 345.537 246.602 344.072 246.602C341.455 246.602 339.492 244.766 339.502 242.188C339.492 239.6 341.455 237.764 344.072 237.754C345.537 237.764 346.797 238.34 347.627 239.316H351.943V236.68H353.838ZM354.287 252.266V253.789H342.451V248.242H344.326V252.266H354.287ZM344.072 239.395C342.471 239.404 341.27 240.527 341.26 242.188C341.27 243.838 342.471 244.961 344.072 244.961C345.674 244.961 346.865 243.838 346.865 242.188C346.865 240.527 345.674 239.404 344.072 239.395ZM348.447 240.82C348.574 241.24 348.643 241.699 348.643 242.188C348.643 242.656 348.574 243.105 348.467 243.516H351.943V240.82H348.447ZM360.342 247.148V249.004H368.584V247.148H370.4V253.926H358.506V247.148H360.342ZM360.342 252.441H368.584V250.43H360.342V252.441ZM372.471 244.531V246.035H356.514V244.531H372.471ZM365.439 237.559C365.449 239.6 368.242 241.543 371.611 241.973L370.908 243.438C368.105 243.027 365.635 241.689 364.502 239.824C363.379 241.689 360.908 243.027 358.076 243.438L357.393 241.973C360.791 241.533 363.545 239.639 363.545 237.559V236.855H365.439V237.559ZM387.471 236.66V243.73H390.244V245.312H387.471V254.16H385.596V236.66H387.471ZM384.092 239.395V240.918H373.721V239.395H378.018V236.895H379.893V239.395H384.092ZM378.975 242.227C381.484 242.217 383.311 243.896 383.311 246.27C383.311 248.662 381.484 250.342 378.975 250.352C376.465 250.342 374.619 248.662 374.619 246.27C374.619 243.896 376.465 242.217 378.975 242.227ZM378.975 243.77C377.48 243.76 376.406 244.775 376.416 246.27C376.406 247.793 377.48 248.799 378.975 248.809C380.449 248.799 381.533 247.793 381.533 246.27C381.533 244.775 380.449 243.76 378.975 243.77ZM405.244 238.34V240.039C405.254 242.217 405.254 244.639 404.6 248.223L402.725 248.008C403.389 244.609 403.389 242.148 403.389 240.039V239.863H392.783V238.34H405.244ZM407.061 250.273V251.797H391.104V250.273H397.139V244.082H399.014V250.273H407.061ZM411.611 250.371L409.893 255.312H408.174L409.521 250.371H411.611ZM432.471 238.438V240.293C432.461 242.588 432.461 245.049 431.807 248.77L429.932 248.594C430.625 245.088 430.625 242.51 430.615 240.293V239.961H420.303V238.438H432.471ZM434.561 250.137V251.68H418.604V250.137H434.561ZM450.4 236.68V247.031H448.525V236.68H450.4ZM444.795 237.695V242.617H438.623V244.746C441.748 244.736 443.945 244.648 446.572 244.219L446.807 245.723C443.975 246.191 441.533 246.279 438.252 246.289H436.787V241.191H442.959V239.199H436.748V237.695H444.795ZM450.4 247.949V253.926H438.916V247.949H450.4ZM440.752 249.414V252.441H448.564V249.414H440.752ZM467.041 238.438V240.293C467.031 242.588 467.031 245.049 466.377 248.77L464.502 248.594C465.195 245.088 465.195 242.51 465.186 240.293V239.961H454.873V238.438H467.041ZM469.131 250.137V251.68H453.174V250.137H469.131ZM484.99 236.66V254.18H483.115V236.66H484.99ZM479.619 238.242V244.648H473.33V248.457C476.162 248.438 478.672 248.32 481.572 247.852L481.768 249.355C478.672 249.873 476.055 250 472.939 250H471.455V243.145H477.725V239.766H471.416V238.242H479.619ZM502.275 236.66V254.141H500.42V236.66H502.275ZM497.061 238.516C497.07 243.652 494.902 248.086 488.896 250.977L487.9 249.492C492.568 247.275 494.814 244.111 495.186 240.02H488.76V238.516H497.061ZM521.025 250.527V252.051H505.029V250.527H512.061V247.441H506.982V241.875H517.236V239.414H506.943V237.91H519.092V243.359H508.818V245.938H519.502V247.441H513.916V250.527H521.025ZM541.787 236.621V246.211H539.912V236.621H541.787ZM541.787 247.031V251.113H532.139V252.559H542.334V253.984H530.303V249.785H539.932V248.418H530.283V247.031H541.787ZM538.213 238.145V239.57H527.51V238.145H531.924V236.465H533.799V238.145H538.213ZM532.861 240.273C535.488 240.273 537.197 241.377 537.197 243.145C537.197 244.912 535.498 246.006 532.861 246.016C530.225 246.006 528.525 244.912 528.525 243.145C528.525 241.377 530.234 240.273 532.861 240.273ZM532.861 241.641C531.328 241.641 530.312 242.207 530.303 243.145C530.312 244.092 531.328 244.648 532.861 244.648C534.404 244.648 535.4 244.092 535.4 243.145C535.4 242.207 534.395 241.641 532.861 241.641ZM559.072 236.68V247.383H557.197V236.68H559.072ZM553.467 237.754V242.715H547.295V244.883C550.381 244.883 552.617 244.785 555.244 244.375L555.479 245.879C552.646 246.338 550.312 246.426 546.924 246.426H545.459V241.309H551.631V239.258H545.42V237.754H553.467ZM553.232 247.734C556.934 247.744 559.189 248.906 559.189 250.918C559.189 252.959 556.924 254.141 553.232 254.141C549.531 254.141 547.285 252.959 547.275 250.918C547.285 248.906 549.521 247.744 553.232 247.734ZM553.232 249.219C550.645 249.219 549.121 249.834 549.131 250.918C549.121 252.041 550.625 252.666 553.232 252.656C555.83 252.666 557.324 252.041 557.334 250.918C557.324 249.834 555.811 249.219 553.232 249.219ZM569.795 236.934C573.74 236.943 576.064 238.018 576.064 239.961C576.064 241.904 573.74 242.988 569.795 242.988C565.879 242.988 563.545 241.904 563.545 239.961C563.545 238.018 565.879 236.943 569.795 236.934ZM569.795 238.34C567.012 238.34 565.479 238.916 565.479 239.961C565.479 241.016 567.012 241.592 569.795 241.582C572.607 241.592 574.141 241.016 574.131 239.961C574.141 238.916 572.607 238.34 569.795 238.34ZM577.783 244.043V245.547H561.826V244.043H577.783ZM575.771 246.895V250.996H565.615V252.539H576.279V253.984H563.779V249.648H573.936V248.301H563.721V246.895H575.771ZM597.822 236.621V240.684H600.381V242.227H597.822V246.211H595.967V236.621H597.822ZM597.822 247.051V251.113H588.389V252.559H598.447V253.984H586.553V249.785H596.006V248.438H586.494V247.051H597.822ZM594.521 238.145V239.59H584.131V238.145H588.389V236.484H590.264V238.145H594.521ZM589.326 240.254C591.885 240.264 593.584 241.367 593.584 243.125C593.584 244.893 591.895 245.986 589.326 245.996C586.748 245.986 585.068 244.893 585.068 243.125C585.068 241.367 586.748 240.264 589.326 240.254ZM589.326 241.621C587.822 241.621 586.836 242.178 586.846 243.125C586.836 244.072 587.822 244.639 589.326 244.648C590.82 244.639 591.797 244.072 591.807 243.125C591.797 242.178 590.82 241.621 589.326 241.621ZM615.303 238.184C615.303 240.488 618.145 242.686 621.553 243.184L620.811 244.688C617.969 244.219 615.469 242.725 614.346 240.664C613.203 242.734 610.703 244.219 607.842 244.688L607.08 243.184C610.527 242.686 613.34 240.537 613.35 238.184V237.246H615.303V238.184ZM622.295 246.406V247.949H615.186V254.16H613.35V247.949H606.338V246.406H622.295ZM634.658 248.203C634.658 249.707 635.41 251.309 636.982 252.246C638.584 251.221 639.365 249.551 639.365 248.203V247.383H641.182V248.203C641.182 250.02 642.393 251.787 644.658 252.539L643.74 253.906C642.021 253.301 640.859 252.139 640.244 250.703C639.688 252.109 638.633 253.398 637.021 254.062C635.352 253.428 634.297 252.197 633.76 250.762C633.115 252.139 631.953 253.291 630.303 253.906L629.385 252.539C631.621 251.729 632.861 249.902 632.861 248.203V247.383H634.658V248.203ZM643.096 236.68V246.641H641.221V236.68H643.096ZM633.604 237.637C636.289 237.637 638.262 239.336 638.252 241.777C638.262 244.18 636.289 245.869 633.604 245.879C630.908 245.869 628.926 244.18 628.936 241.777C628.926 239.336 630.908 237.637 633.604 237.637ZM633.604 239.199C631.953 239.199 630.752 240.225 630.752 241.777C630.752 243.291 631.953 244.316 633.604 244.316C635.244 244.316 636.436 243.291 636.436 241.777C636.436 240.225 635.244 239.199 633.604 239.199ZM650.596 237.969C652.988 237.969 654.736 239.99 655.01 243.223H658.604V236.66H660.459V254.18H658.604V244.727H655.01C654.824 248.115 653.047 250.254 650.596 250.254C648.018 250.254 646.172 247.852 646.162 244.102C646.172 240.361 648.018 237.969 650.596 237.969ZM650.596 239.648C649.023 239.648 647.939 241.357 647.939 244.102C647.939 246.875 649.023 248.584 650.596 248.574C652.188 248.584 653.271 246.875 653.271 244.102C653.271 241.357 652.188 239.648 650.596 239.648ZM679.15 250.43V251.973H663.154V250.43H666.963V245.859C665.527 245.068 664.648 243.809 664.658 242.246C664.648 239.482 667.373 237.695 671.104 237.695C674.883 237.695 677.588 239.482 677.588 242.246C677.588 243.799 676.729 245.049 675.303 245.84V250.43H679.15ZM671.104 239.16C668.398 239.16 666.465 240.361 666.475 242.246C666.465 244.131 668.398 245.332 671.104 245.332C673.848 245.332 675.762 244.131 675.771 242.246C675.762 240.361 673.848 239.16 671.104 239.16ZM668.818 250.43H673.447V246.543C672.734 246.709 671.943 246.797 671.104 246.797C670.283 246.797 669.521 246.709 668.818 246.543V250.43ZM683.955 247.891H681.807V238.359H683.955V247.891ZM682.881 252.676C682.061 252.676 681.475 252.1 681.475 251.309C681.475 250.518 682.061 249.941 682.881 249.941C683.682 249.941 684.268 250.518 684.268 251.309C684.268 252.1 683.682 252.676 682.881 252.676Z" fill="white"/>
</svg>
