<svg width="694" height="169" viewBox="0 0 694 169" fill="none" xmlns="http://www.w3.org/2000/svg">
<path d="M293.27 5.82031V7.85938C293.27 10.4961 293.27 13.4609 292.449 17.8906L289.824 17.5859C290.621 13.4727 290.633 10.4844 290.645 7.95312H277.988V5.82031H293.27ZM295.309 20.2109V22.3672H275.996V20.2109H283.074V12.8516H285.723V20.2109H295.309ZM308.012 5.63281V15.7344H297.816V5.63281H308.012ZM300.395 7.74219V13.625H305.434V7.74219H300.395ZM314.387 3.92188V19.0156H311.738V3.92188H314.387ZM314.973 22.3906V24.5234H300.348V17.6328H302.973V22.3906H314.973ZM335.082 3.89844V25.1094H332.457V3.89844H335.082ZM323.668 5.42188C326.891 5.43359 329.211 8.35156 329.223 12.9219C329.211 17.5039 326.891 20.4219 323.668 20.4219C320.48 20.4219 318.137 17.5039 318.137 12.9219C318.137 8.35156 320.48 5.43359 323.668 5.42188ZM323.668 7.8125C321.887 7.82422 320.68 9.6875 320.668 12.9219C320.68 16.168 321.887 18.043 323.668 18.0547C325.461 18.043 326.68 16.168 326.691 12.9219C326.68 9.6875 325.461 7.82422 323.668 7.8125ZM351.652 17.6797C351.641 19.4258 352.449 21.2773 354.254 22.4141C356.094 21.1836 356.926 19.2734 356.926 17.6797V16.8125H359.504V17.6797C359.504 19.8711 360.828 21.957 363.605 22.8359L362.316 24.7812C360.266 24.0781 358.906 22.7188 358.168 21.0312C357.488 22.6953 356.234 24.1836 354.301 24.9688C352.309 24.2305 351.043 22.7891 350.363 21.1016C349.602 22.7305 348.254 24.0664 346.285 24.7812L344.996 22.8359C347.738 21.875 349.098 19.7188 349.098 17.6797V16.8125H351.652V17.6797ZM361.754 3.92188V15.9453H359.105V3.92188H361.754ZM350.199 5.04688C353.469 5.04688 355.906 7.13281 355.918 10.0859C355.906 13.0156 353.469 15.0898 350.199 15.1016C346.906 15.0898 344.457 13.0156 344.457 10.0859C344.457 7.13281 346.906 5.04688 350.199 5.04688ZM350.199 7.22656C348.371 7.23828 347.047 8.33984 347.035 10.0859C347.047 11.8086 348.371 12.9102 350.199 12.8984C352.004 12.9102 353.328 11.8086 353.34 10.0859C353.328 8.33984 352.004 7.23828 350.199 7.22656ZM384.582 12.0547V14.2344H381.441V25.0391H378.793V3.89844H381.441V12.0547H384.582ZM368.176 5.9375V17.6094C371.047 17.5742 374.023 17.3398 377.199 16.7188L377.48 18.875C373.895 19.625 370.473 19.8125 367.332 19.8125H365.574V5.9375H368.176ZM404.926 20.3516V22.5312H385.59V20.3516H390.02V14.9844C388.344 14.0234 387.324 12.5117 387.324 10.6484C387.324 7.25 390.664 5.05859 395.223 5.04688C399.805 5.05859 403.121 7.25 403.121 10.6484C403.121 12.5117 402.113 14.0117 400.449 14.9844V20.3516H404.926ZM395.223 7.10938C392.082 7.12109 389.914 8.44531 389.902 10.6484C389.914 12.8398 392.082 14.1758 395.223 14.1875C398.375 14.1758 400.543 12.8398 400.543 10.6484C400.543 8.44531 398.375 7.12109 395.223 7.10938ZM392.645 20.3516H397.824V15.9688C397.016 16.1445 396.148 16.2266 395.223 16.2266C394.309 16.2266 393.441 16.1445 392.645 15.9688V20.3516ZM410.668 17.3984C410.68 12.5234 414.629 13.1328 414.629 10.5312C414.629 9.20703 413.609 8.36328 412.145 8.35156C410.539 8.36328 409.566 9.37109 409.566 11.0234H406.59C406.602 7.78906 408.945 5.70312 412.262 5.70312C415.32 5.70312 417.723 7.44922 417.723 10.4141C417.723 14.2695 413.645 13.7773 413.645 17.3047V17.7266H410.668V17.3984ZM412.168 23.2344C411.055 23.2344 410.258 22.4609 410.27 21.4062C410.258 20.3516 411.055 19.5781 412.168 19.5781C413.258 19.5781 414.055 20.3516 414.066 21.4062C414.055 22.4609 413.258 23.2344 412.168 23.2344Z" fill="#4DCDBF"/>
<path d="M163.947 75.5723V112.691H159.354V75.5723H163.947ZM143.973 78.2383C149.612 78.2588 153.673 83.3652 153.693 91.3633C153.673 99.3818 149.612 104.488 143.973 104.488C138.395 104.488 134.293 99.3818 134.293 91.3633C134.293 83.3652 138.395 78.2588 143.973 78.2383ZM143.973 82.4219C140.855 82.4424 138.743 85.7031 138.723 91.3633C138.743 97.0439 140.855 100.325 143.973 100.346C147.11 100.325 149.243 97.0439 149.264 91.3633C149.243 85.7031 147.11 82.4424 143.973 82.4219ZM187.572 78.0742V89.5996H175.473V94.2754C181.625 94.2344 185.686 94.0703 190.279 93.291L190.689 97.0234C185.521 97.8438 181.112 97.9668 173.832 97.9668H170.879V86.0723H183.02V81.7656H170.838V78.0742H187.572ZM200.492 75.6133V102.807H195.857V88.6562H189.582V84.7598H195.857V75.6133H200.492ZM201.477 108.18V111.912H175.924V100.715H180.559V108.18H201.477ZM246.266 78.9355V82.5039C246.266 87.1182 246.266 92.3066 244.83 100.059L240.236 99.5254C241.631 92.3271 241.651 87.0977 241.672 82.668H219.523V78.9355H246.266ZM249.834 104.119V107.893H216.037V104.119H228.424V91.2402H233.059V104.119H249.834ZM272.064 78.6074V96.2852H254.223V78.6074H272.064ZM258.734 82.2988V92.5938H267.553V82.2988H258.734ZM283.221 75.6133V102.027H278.586V75.6133H283.221ZM284.246 107.934V111.666H258.652V99.6074H263.246V107.934H284.246ZM305.492 76.1465C313.921 76.1465 318.884 78.4023 318.863 82.5039C318.884 86.6055 313.921 88.8818 305.492 88.8613C297.084 88.8818 292.101 86.6055 292.121 82.5039C292.101 78.4023 297.084 76.1465 305.492 76.1465ZM305.492 79.5508C299.812 79.5713 296.899 80.5762 296.879 82.5039C296.899 84.4932 299.812 85.457 305.492 85.457C311.173 85.457 314.105 84.4932 314.105 82.5039C314.105 80.5762 311.173 79.5713 305.492 79.5508ZM322.391 90.8711V94.5215H288.594V90.8711H322.391ZM318.207 97.0234V106.088H297.166V108.795H319.232V112.322H292.613V102.848H313.654V100.469H292.531V97.0234H318.207ZM364.309 75.6133V90.2969H369.969V94.1523H364.309V112.609H359.674V75.6133H364.309ZM356.885 81.2324V84.9238H335.023V81.2324H343.719V76.1465H348.354V81.2324H356.885ZM346.057 87.3848C351.43 87.3643 355.388 90.9736 355.367 96.0801C355.388 101.187 351.43 104.796 346.057 104.775C340.684 104.796 336.726 101.187 336.746 96.0801C336.726 90.9736 340.684 87.3643 346.057 87.3848ZM346.057 91.1582C343.186 91.1582 341.135 93.0654 341.135 96.0801C341.135 99.0947 343.186 101.022 346.057 101.002C348.907 101.022 350.979 99.0947 350.979 96.0801C350.979 93.0654 348.907 91.1582 346.057 91.1582ZM401.756 78.9355V82.5039C401.756 87.1182 401.756 92.3066 400.32 100.059L395.727 99.5254C397.121 92.3271 397.142 87.0977 397.162 82.668H375.014V78.9355H401.756ZM405.324 104.119V107.893H371.527V104.119H383.914V91.2402H388.549V104.119H405.324ZM450.113 75.5723V112.609H445.725V75.5723H450.113ZM442.402 76.4336V110.887H438.096V98.5H432.312V94.8086H438.096V89.2305H432.969C431.246 95.4238 427.391 100.715 420.377 104.816L417.752 101.576C425.381 97.0029 428.888 91.2402 429.564 83.7754H419.721V80.043H434.117C434.117 81.9502 433.994 83.7959 433.748 85.5801H438.096V76.4336H442.402ZM468.406 84.3906C468.406 91.3018 471.995 98.0488 478.004 100.674L475.297 104.406C470.99 102.376 467.873 98.4385 466.191 93.5781C464.469 98.8076 461.27 103.053 456.799 105.186L454.01 101.371C460.162 98.6436 463.792 91.5273 463.771 84.3906V78.5664H468.406V84.3906ZM485.223 75.5723V112.691H480.629V75.5723H485.223ZM519.758 75.5723V89.5996H525.459V93.4141H519.758V112.691H515.123V75.5723H519.758ZM509.586 79.0586V82.791H496.789V99.8125C502.613 99.7715 507.146 99.4844 512.211 98.623L512.703 102.438C507.002 103.463 502.08 103.668 495.271 103.668H492.195V79.0586H509.586ZM546.008 78.6484V81.6426H553.432V75.6133H558.066V102.602H553.432V93.332H546.008V96.4902H528.617V78.6484H546.008ZM533.129 82.2988V92.8398H541.537V82.2988H533.129ZM558.887 108.18V111.912H533.58V100.1H538.215V108.18H558.887ZM546.008 89.5996H553.432V85.375H546.008V89.5996ZM16.0244 136.072C16.0449 142.143 19.6133 148.541 25.5811 151.043L22.9971 154.693C18.6904 152.786 15.4707 148.89 13.7686 144.193C12.0869 149.279 8.84668 153.545 4.45801 155.596L1.83301 151.945C7.73926 149.259 11.3486 142.348 11.3486 136.072V133.037H3.22754V129.223H24.1455V133.037H16.0244V136.072ZM32.8408 125.613V162.609H28.2471V125.613H32.8408ZM68.0322 127.336V130.207C68.0527 133.222 68.0527 136.421 67.1299 140.748H72.1748V144.439H38.3369V140.748H62.5771C63.4385 136.77 63.5205 133.755 63.5205 131.027H42.5615V127.336H68.0322ZM68.0322 148.787V162.199H42.3564V148.787H68.0322ZM46.8682 152.396V158.508H63.4795V152.396H46.8682ZM116.759 125.572V162.609H112.37V143.906H108.269V160.805H103.962V126.311H108.269V140.133H112.37V125.572H116.759ZM91.124 129.797V149.402C94.2617 149.32 97.8301 149.074 101.665 148.336L102.116 152.314C97.1533 153.196 92.8672 153.381 88.9912 153.381H86.4893V129.797H91.124ZM150.269 125.572V140.051H155.765V143.865H150.269V162.568H145.634V125.572H150.269ZM140.425 129.428C140.445 140.338 135.954 149.854 123.649 155.965L121.065 152.479C129.925 147.987 134.847 141.753 135.749 133.201H122.993V129.428H140.425ZM197.313 129.182V133.324C197.293 138.349 197.293 143.496 195.96 151.248L191.325 150.797C192.74 143.558 192.74 138.185 192.72 133.324V132.873H171.351V129.182H197.313ZM201.62 153.791V157.605H167.823V153.791H201.62ZM234.966 125.613V152.889H230.372V125.613H234.966ZM235.95 158.18V161.912H210.233V150.674H214.827V158.18H235.95ZM223.071 128.074V139.518H210.562V144.234C217.37 144.234 221.738 144.029 226.804 143.086L227.255 146.777C221.8 147.782 217.062 147.987 209.208 147.967H206.05V136.072H218.519V131.807H205.968V128.074H223.071ZM281.642 125.572V162.609H277.048V125.572H281.642ZM270.567 129.469C270.588 140.563 266.343 149.895 253.382 156.129L250.921 152.438C260.621 147.844 265.092 141.609 265.892 133.16H252.808V129.469H270.567ZM317.858 125.613V152.889H313.265V125.613H317.858ZM318.843 158.18V161.912H293.126V150.674H297.72V158.18H318.843ZM305.964 128.074V139.518H293.454V144.234C300.263 144.234 304.631 144.029 309.696 143.086L310.147 146.777C304.692 147.782 299.955 147.987 292.101 147.967H288.942V136.072H301.411V131.807H288.86V128.074H305.964ZM363.099 129.182V133.324C363.078 138.349 363.078 143.496 361.745 151.248L357.11 150.797C358.525 143.558 358.525 138.185 358.505 133.324V132.873H337.136V129.182H363.099ZM367.405 153.791V157.605H333.608V153.791H367.405ZM400.792 125.613V147.557H396.157V125.613H400.792ZM388.856 127.746V138.533H376.347V142.389C382.807 142.368 387.257 142.163 392.507 141.322L393.04 145.014C387.257 145.978 382.13 146.142 374.993 146.121H371.835V135.047H384.304V131.438H371.753V127.746H388.856ZM400.792 149.361V162.199H376.183V149.361H400.792ZM380.735 152.971V158.508H396.239V152.971H380.735ZM426.878 129.387V132.053C426.878 135.437 426.878 140.03 425.853 146.449L421.341 146.039C422.243 140.461 422.346 136.277 422.366 133.078H407.806V129.387H426.878ZM417.567 140.01V150.961C421.361 150.797 425.237 150.551 428.765 150.1L429.011 153.504C421.361 154.755 412.81 154.939 406.288 154.939L405.837 151.166C408.011 151.166 410.451 151.146 413.015 151.084V140.01H417.567ZM435.286 125.572V140.707H440.659V144.521H435.286V162.609H430.651V125.572H435.286ZM482.003 125.613V134.965H487.212V138.779H482.003V147.885H477.409V125.613H482.003ZM482.003 149.689V162.199H458.05V149.689H482.003ZM462.562 153.34V158.508H477.532V153.34H462.562ZM474.825 129.141V132.791H452.841V129.141H461.536V125.326H466.13V129.141H474.825ZM463.833 134.186C469.206 134.186 472.918 136.831 472.938 140.83C472.918 144.829 469.186 147.434 463.833 147.434C458.439 147.434 454.728 144.829 454.728 140.83C454.728 136.831 458.419 134.186 463.833 134.186ZM463.833 137.59C461.023 137.61 459.137 138.779 459.116 140.83C459.137 142.86 461.044 144.029 463.833 144.029C466.602 144.029 468.509 142.86 468.509 140.83C468.509 138.779 466.602 137.61 463.833 137.59ZM498.204 129.879C498.184 138.759 497.22 147.146 492.339 154.488L488.729 152.52C492.79 146.695 493.979 140.728 494.267 133.611H489.796V129.879H498.204ZM506.489 129.879C506.489 133.099 506.428 136.421 506.079 139.723H509.771V126.434H514.077V160.887H509.771V143.414H505.587C504.808 148.008 503.331 152.458 500.624 156.498L497.056 154.488C501.526 148.09 502.408 140.994 502.593 133.611H499.353V129.879H506.489ZM521.296 125.613V162.609H516.907V125.613H521.296ZM543.444 131.438V135.129H525.315V131.438H532.165V126.598H536.759V131.438H543.444ZM534.421 137.098C539.158 137.077 542.562 140.666 542.583 145.752C542.562 150.858 539.158 154.427 534.421 154.406C529.745 154.427 526.32 150.858 526.341 145.752C526.32 140.666 529.745 137.077 534.421 137.098ZM534.421 140.912C532.083 140.933 530.422 142.799 530.401 145.752C530.422 148.746 532.083 150.592 534.421 150.592C536.779 150.592 538.481 148.746 538.481 145.752C538.481 142.799 536.779 140.933 534.421 140.912ZM557.308 125.572V162.609H552.919V144.562H549.31V160.969H545.003V126.311H549.31V140.83H552.919V125.572H557.308ZM605.829 154.406V158.18H571.991V154.406H586.552V147.188H575.724V128.033H580.276V134.062H597.421V128.033H602.015V147.188H591.146V154.406H605.829ZM580.276 143.496H597.421V137.713H580.276V143.496ZM619.856 135.211C619.856 141.22 621.907 147.454 626.952 150.592L624.409 154.201C621.107 152.191 618.934 148.746 617.724 144.686C616.329 149.341 613.868 152.971 610.464 155.021L607.675 151.535C613.027 148.356 615.406 141.753 615.427 135.457V128.895H619.856V135.211ZM640.241 125.572V162.609H635.853V125.572H640.241ZM632.571 126.229V160.887H628.224V142.102H623.015V138.328H628.224V126.229H632.571ZM678.427 154.365V158.18H644.589V154.365H652.341V144.973C649.408 143.291 647.624 140.646 647.624 137.385C647.624 131.438 653.469 127.603 661.446 127.582C669.465 127.603 675.269 131.438 675.269 137.385C675.269 140.646 673.505 143.271 670.593 144.973V154.365H678.427ZM661.446 131.191C655.95 131.212 652.156 133.529 652.136 137.385C652.156 141.22 655.95 143.558 661.446 143.578C666.963 143.558 670.757 141.22 670.757 137.385C670.757 133.529 666.963 131.212 661.446 131.191ZM656.935 154.365H665.999V146.695C664.584 147.003 663.066 147.146 661.446 147.146C659.847 147.146 658.329 147.003 656.935 146.695V154.365ZM689.091 149.197H683.759V129.305H689.091V149.197ZM686.425 159.41C684.497 159.41 683.103 158.057 683.103 156.211C683.103 154.365 684.497 153.012 686.425 153.012C688.332 153.012 689.747 154.365 689.747 156.211C689.747 158.057 688.332 159.41 686.425 159.41Z" fill="white"/>
</svg>

